<svg width="163" height="48" viewBox="0 0 163 48" fill="none" xmlns="http://www.w3.org/2000/svg">
<rect x="0.5" y="0.5" width="162" height="47" rx="7.5" stroke="#EA7C69"/>
<path d="M64.798 30.112C64.098 30.112 63.482 29.9767 62.95 29.706C62.418 29.426 62.0073 29.0387 61.718 28.544C61.4287 28.0493 61.284 27.4753 61.284 26.822V23.364C61.284 22.7107 61.4287 22.1367 61.718 21.642C62.0073 21.1473 62.418 20.7647 62.95 20.494C63.482 20.2233 64.098 20.088 64.798 20.088C65.4887 20.088 66.1 20.2187 66.632 20.48C67.164 20.7413 67.5747 21.11 67.864 21.586C68.1533 22.062 68.298 22.6127 68.298 23.238C68.298 23.2847 68.2793 23.3267 68.242 23.364C68.214 23.392 68.1767 23.406 68.13 23.406L66.842 23.476C66.73 23.476 66.674 23.4247 66.674 23.322C66.674 22.7713 66.5013 22.328 66.156 21.992C65.82 21.656 65.3673 21.488 64.798 21.488C64.2287 21.488 63.7713 21.656 63.426 21.992C63.0807 22.328 62.908 22.7713 62.908 23.322V26.892C62.908 27.4333 63.0807 27.872 63.426 28.208C63.7713 28.544 64.2287 28.712 64.798 28.712C65.3673 28.712 65.82 28.5487 66.156 28.222C66.5013 27.886 66.674 27.4427 66.674 26.892C66.674 26.7893 66.73 26.738 66.842 26.738L68.13 26.794C68.1767 26.794 68.214 26.808 68.242 26.836C68.2793 26.864 68.298 26.8967 68.298 26.934C68.298 27.5687 68.1533 28.1287 67.864 28.614C67.5747 29.09 67.164 29.4587 66.632 29.72C66.1 29.9813 65.4887 30.112 64.798 30.112ZM72.5609 22.734C73.1489 22.734 73.6669 22.8367 74.1149 23.042C74.5629 23.2473 74.9082 23.532 75.1509 23.896C75.3936 24.2507 75.5149 24.6567 75.5149 25.114V29.832C75.5149 29.8787 75.4962 29.9207 75.4589 29.958C75.4309 29.986 75.3936 30 75.3469 30H74.0589C74.0122 30 73.9702 29.986 73.9329 29.958C73.9049 29.9207 73.8909 29.8787 73.8909 29.832V29.384C73.8909 29.356 73.8816 29.342 73.8629 29.342C73.8442 29.3327 73.8256 29.3373 73.8069 29.356C73.3496 29.86 72.6869 30.112 71.8189 30.112C71.1189 30.112 70.5402 29.9347 70.0829 29.58C69.6349 29.2253 69.4109 28.698 69.4109 27.998C69.4109 27.27 69.6629 26.7053 70.1669 26.304C70.6802 25.8933 71.3989 25.688 72.3229 25.688H73.8209C73.8676 25.688 73.8909 25.6647 73.8909 25.618V25.282C73.8909 24.918 73.7836 24.638 73.5689 24.442C73.3542 24.2367 73.0322 24.134 72.6029 24.134C72.2482 24.134 71.9589 24.1993 71.7349 24.33C71.5202 24.4513 71.3849 24.624 71.3289 24.848C71.3009 24.96 71.2356 25.0067 71.1329 24.988L69.7749 24.82C69.7282 24.8107 69.6862 24.7967 69.6489 24.778C69.6209 24.75 69.6116 24.7173 69.6209 24.68C69.6956 24.1107 69.9989 23.644 70.5309 23.28C71.0722 22.916 71.7489 22.734 72.5609 22.734ZM72.2249 28.824C72.6822 28.824 73.0742 28.7027 73.4009 28.46C73.7276 28.2173 73.8909 27.9093 73.8909 27.536V26.878C73.8909 26.8313 73.8676 26.808 73.8209 26.808H72.6449C72.1502 26.808 71.7582 26.9013 71.4689 27.088C71.1889 27.2747 71.0489 27.5407 71.0489 27.886C71.0489 28.1847 71.1562 28.418 71.3709 28.586C71.5949 28.7447 71.8796 28.824 72.2249 28.824ZM80.5753 22.734C81.3313 22.734 81.9333 22.958 82.3813 23.406C82.8387 23.854 83.0673 24.4653 83.0673 25.24V29.832C83.0673 29.8787 83.0487 29.9207 83.0113 29.958C82.9833 29.986 82.946 30 82.8993 30H81.6113C81.5647 30 81.5227 29.986 81.4853 29.958C81.4573 29.9207 81.4433 29.8787 81.4433 29.832V25.576C81.4433 25.1467 81.322 24.8013 81.0793 24.54C80.8367 24.2693 80.5147 24.134 80.1133 24.134C79.712 24.134 79.3853 24.2647 79.1333 24.526C78.8907 24.7873 78.7693 25.1327 78.7693 25.562V29.832C78.7693 29.8787 78.7507 29.9207 78.7133 29.958C78.6853 29.986 78.648 30 78.6013 30H77.3133C77.2667 30 77.2247 29.986 77.1873 29.958C77.1593 29.9207 77.1453 29.8787 77.1453 29.832V23.014C77.1453 22.9673 77.1593 22.93 77.1873 22.902C77.2247 22.8647 77.2667 22.846 77.3133 22.846H78.6013C78.648 22.846 78.6853 22.8647 78.7133 22.902C78.7507 22.93 78.7693 22.9673 78.7693 23.014V23.462C78.7693 23.49 78.7787 23.5087 78.7973 23.518C78.816 23.5273 78.83 23.518 78.8393 23.49C79.222 22.986 79.8007 22.734 80.5753 22.734ZM87.6879 30.112C86.9692 30.112 86.3486 29.93 85.8259 29.566C85.3032 29.1927 84.9392 28.6933 84.7339 28.068C84.5846 27.648 84.5099 27.088 84.5099 26.388C84.5099 25.716 84.5846 25.1653 84.7339 24.736C84.9299 24.12 85.2892 23.6347 85.8119 23.28C86.3439 22.916 86.9692 22.734 87.6879 22.734C88.4159 22.734 89.0506 22.916 89.5919 23.28C90.1332 23.644 90.4926 24.1013 90.6699 24.652C90.7166 24.8013 90.7492 24.9507 90.7679 25.1V25.128C90.7679 25.2213 90.7166 25.2773 90.6139 25.296L89.3539 25.478H89.3259C89.2419 25.478 89.1859 25.4313 89.1579 25.338C89.1579 25.2913 89.1532 25.254 89.1439 25.226C89.1252 25.1513 89.1066 25.086 89.0879 25.03C89.0039 24.7687 88.8359 24.554 88.5839 24.386C88.3319 24.218 88.0332 24.134 87.6879 24.134C87.3332 24.134 87.0299 24.2273 86.7779 24.414C86.5352 24.5913 86.3719 24.8387 86.2879 25.156C86.1946 25.4547 86.1479 25.87 86.1479 26.402C86.1479 26.9153 86.1899 27.3307 86.2739 27.648C86.3672 27.9747 86.5352 28.236 86.7779 28.432C87.0206 28.6187 87.3239 28.712 87.6879 28.712C88.0426 28.712 88.3459 28.6233 88.5979 28.446C88.8592 28.2593 89.0272 28.012 89.1019 27.704C89.1112 27.6853 89.1159 27.662 89.1159 27.634C89.1252 27.6247 89.1299 27.6107 89.1299 27.592C89.1579 27.48 89.2232 27.4333 89.3259 27.452L90.5859 27.648C90.6326 27.6573 90.6699 27.6807 90.6979 27.718C90.7352 27.746 90.7492 27.788 90.7399 27.844C90.7119 27.9933 90.6886 28.1007 90.6699 28.166C90.4926 28.7633 90.1332 29.2393 89.5919 29.594C89.0506 29.9393 88.4159 30.112 87.6879 30.112ZM98.109 25.618C98.1464 25.8513 98.165 26.1127 98.165 26.402L98.151 26.836C98.151 26.948 98.095 27.004 97.983 27.004H93.601C93.5544 27.004 93.531 27.0273 93.531 27.074C93.559 27.382 93.601 27.592 93.657 27.704C93.881 28.376 94.427 28.7167 95.295 28.726C95.9297 28.726 96.4337 28.4647 96.807 27.942C96.8444 27.886 96.891 27.858 96.947 27.858C96.9844 27.858 97.017 27.872 97.045 27.9L97.913 28.614C97.997 28.6793 98.011 28.754 97.955 28.838C97.6657 29.2487 97.2784 29.566 96.793 29.79C96.317 30.014 95.785 30.126 95.197 30.126C94.469 30.126 93.8484 29.9627 93.335 29.636C92.831 29.3093 92.4624 28.852 92.229 28.264C92.0144 27.76 91.907 27.06 91.907 26.164C91.907 25.6227 91.963 25.184 92.075 24.848C92.2617 24.1947 92.6117 23.6813 93.125 23.308C93.6477 22.9253 94.273 22.734 95.001 22.734C96.8397 22.734 97.8757 23.6953 98.109 25.618ZM95.001 24.134C94.6557 24.134 94.3664 24.2227 94.133 24.4C93.909 24.568 93.7504 24.806 93.657 25.114C93.601 25.2727 93.5637 25.478 93.545 25.73C93.5264 25.7767 93.545 25.8 93.601 25.8H96.443C96.4897 25.8 96.513 25.7767 96.513 25.73C96.4944 25.4967 96.4664 25.3193 96.429 25.198C96.345 24.862 96.177 24.6007 95.925 24.414C95.6824 24.2273 95.3744 24.134 95.001 24.134ZM99.8173 30C99.7706 30 99.7286 29.986 99.6913 29.958C99.6633 29.9207 99.6493 29.8787 99.6493 29.832V20.368C99.6493 20.3213 99.6633 20.284 99.6913 20.256C99.7286 20.2187 99.7706 20.2 99.8173 20.2H101.105C101.152 20.2 101.189 20.2187 101.217 20.256C101.255 20.284 101.273 20.3213 101.273 20.368V29.832C101.273 29.8787 101.255 29.9207 101.217 29.958C101.189 29.986 101.152 30 101.105 30H99.8173Z" fill="#EA7C69"/>
</svg>
