<svg width="172" height="48" viewBox="0 0 172 48" fill="none" xmlns="http://www.w3.org/2000/svg">
<rect x="0.5" y="0.5" width="171" height="47" rx="7.5" stroke="#EA7C69"/>
<path d="M35.69 30C35.6433 30 35.6013 29.986 35.564 29.958C35.536 29.9207 35.522 29.8787 35.522 29.832V20.368C35.522 20.3213 35.536 20.284 35.564 20.256C35.6013 20.2187 35.6433 20.2 35.69 20.2H39.106C39.7687 20.2 40.352 20.3167 40.856 20.55C41.36 20.7833 41.7473 21.1193 42.018 21.558C42.298 21.9873 42.438 22.4913 42.438 23.07V27.13C42.438 27.7087 42.298 28.2173 42.018 28.656C41.7473 29.0853 41.36 29.4167 40.856 29.65C40.352 29.8833 39.7687 30 39.106 30H35.69ZM37.146 28.53C37.146 28.5767 37.1693 28.6 37.216 28.6H39.176C39.6707 28.6 40.0627 28.446 40.352 28.138C40.6507 27.8207 40.8047 27.4007 40.814 26.878V23.336C40.814 22.804 40.6647 22.384 40.366 22.076C40.0673 21.7587 39.666 21.6 39.162 21.6H37.216C37.1693 21.6 37.146 21.6233 37.146 21.67V28.53ZM44.9463 21.866C44.657 21.866 44.419 21.7727 44.2323 21.586C44.0456 21.3993 43.9523 21.1613 43.9523 20.872C43.9523 20.5827 44.0456 20.3447 44.2323 20.158C44.419 19.9713 44.657 19.878 44.9463 19.878C45.2356 19.878 45.4736 19.9713 45.6603 20.158C45.847 20.3447 45.9403 20.5827 45.9403 20.872C45.9403 21.1613 45.847 21.3993 45.6603 21.586C45.4736 21.7727 45.2356 21.866 44.9463 21.866ZM44.2743 30C44.2276 30 44.1856 29.986 44.1483 29.958C44.1203 29.9207 44.1063 29.8787 44.1063 29.832V23C44.1063 22.9533 44.1203 22.916 44.1483 22.888C44.1856 22.8507 44.2276 22.832 44.2743 22.832H45.5623C45.609 22.832 45.6463 22.8507 45.6743 22.888C45.7116 22.916 45.7303 22.9533 45.7303 23V29.832C45.7303 29.8787 45.7116 29.9207 45.6743 29.958C45.6463 29.986 45.609 30 45.5623 30H44.2743ZM50.2507 30.084C49.6627 30.084 49.1447 30 48.6967 29.832C48.258 29.6547 47.9173 29.4167 47.6747 29.118C47.432 28.81 47.3107 28.4693 47.3107 28.096V27.97C47.3107 27.9233 47.3247 27.886 47.3527 27.858C47.39 27.8207 47.432 27.802 47.4787 27.802H48.7107C48.7573 27.802 48.7947 27.8207 48.8227 27.858C48.86 27.886 48.8787 27.9233 48.8787 27.97V27.998C48.8787 28.2313 49.0047 28.4367 49.2567 28.614C49.518 28.782 49.8447 28.866 50.2367 28.866C50.61 28.866 50.9133 28.7913 51.1467 28.642C51.38 28.4833 51.4967 28.2873 51.4967 28.054C51.4967 27.8393 51.3987 27.6807 51.2027 27.578C51.016 27.466 50.708 27.3493 50.2787 27.228L49.7467 27.06C49.2707 26.92 48.8693 26.7707 48.5427 26.612C48.216 26.4533 47.9407 26.2387 47.7167 25.968C47.4927 25.688 47.3807 25.3333 47.3807 24.904C47.3807 24.2507 47.6373 23.7327 48.1507 23.35C48.664 22.958 49.3407 22.762 50.1807 22.762C50.75 22.762 51.2493 22.8553 51.6787 23.042C52.108 23.2193 52.4393 23.4713 52.6727 23.798C52.906 24.1153 53.0227 24.4793 53.0227 24.89C53.0227 24.9367 53.004 24.9787 52.9667 25.016C52.9387 25.044 52.9013 25.058 52.8547 25.058H51.6647C51.618 25.058 51.576 25.044 51.5387 25.016C51.5107 24.9787 51.4967 24.9367 51.4967 24.89C51.4967 24.6473 51.3753 24.4467 51.1327 24.288C50.8993 24.12 50.5773 24.036 50.1667 24.036C49.8027 24.036 49.504 24.106 49.2707 24.246C49.0467 24.3767 48.9347 24.5633 48.9347 24.806C48.9347 25.03 49.042 25.2027 49.2567 25.324C49.4807 25.436 49.8493 25.562 50.3627 25.702L50.6707 25.786C51.1653 25.9353 51.5807 26.0893 51.9167 26.248C52.2527 26.3973 52.5373 26.612 52.7707 26.892C53.004 27.1627 53.1207 27.5173 53.1207 27.956C53.1207 28.6187 52.8593 29.1413 52.3367 29.524C51.814 29.8973 51.1187 30.084 50.2507 30.084ZM57.477 30.112C56.7583 30.112 56.1376 29.93 55.615 29.566C55.0923 29.1927 54.7283 28.6933 54.523 28.068C54.3736 27.648 54.299 27.088 54.299 26.388C54.299 25.716 54.3736 25.1653 54.523 24.736C54.719 24.12 55.0783 23.6347 55.601 23.28C56.133 22.916 56.7583 22.734 57.477 22.734C58.205 22.734 58.8396 22.916 59.381 23.28C59.9223 23.644 60.2816 24.1013 60.459 24.652C60.5056 24.8013 60.5383 24.9507 60.557 25.1V25.128C60.557 25.2213 60.5056 25.2773 60.403 25.296L59.143 25.478H59.115C59.031 25.478 58.975 25.4313 58.947 25.338C58.947 25.2913 58.9423 25.254 58.933 25.226C58.9143 25.1513 58.8956 25.086 58.877 25.03C58.793 24.7687 58.625 24.554 58.373 24.386C58.121 24.218 57.8223 24.134 57.477 24.134C57.1223 24.134 56.819 24.2273 56.567 24.414C56.3243 24.5913 56.161 24.8387 56.077 25.156C55.9836 25.4547 55.937 25.87 55.937 26.402C55.937 26.9153 55.979 27.3307 56.063 27.648C56.1563 27.9747 56.3243 28.236 56.567 28.432C56.8096 28.6187 57.113 28.712 57.477 28.712C57.8316 28.712 58.135 28.6233 58.387 28.446C58.6483 28.2593 58.8163 28.012 58.891 27.704C58.9003 27.6853 58.905 27.662 58.905 27.634C58.9143 27.6247 58.919 27.6107 58.919 27.592C58.947 27.48 59.0123 27.4333 59.115 27.452L60.375 27.648C60.4216 27.6573 60.459 27.6807 60.487 27.718C60.5243 27.746 60.5383 27.788 60.529 27.844C60.501 27.9933 60.4776 28.1007 60.459 28.166C60.2816 28.7633 59.9223 29.2393 59.381 29.594C58.8396 29.9393 58.205 30.112 57.477 30.112ZM64.6625 22.734C65.2505 22.734 65.7685 22.8367 66.2165 23.042C66.6645 23.2473 67.0098 23.532 67.2525 23.896C67.4951 24.2507 67.6165 24.6567 67.6165 25.114V29.832C67.6165 29.8787 67.5978 29.9207 67.5605 29.958C67.5325 29.986 67.4951 30 67.4485 30H66.1605C66.1138 30 66.0718 29.986 66.0345 29.958C66.0065 29.9207 65.9925 29.8787 65.9925 29.832V29.384C65.9925 29.356 65.9831 29.342 65.9645 29.342C65.9458 29.3327 65.9271 29.3373 65.9085 29.356C65.4511 29.86 64.7885 30.112 63.9205 30.112C63.2205 30.112 62.6418 29.9347 62.1845 29.58C61.7365 29.2253 61.5125 28.698 61.5125 27.998C61.5125 27.27 61.7645 26.7053 62.2685 26.304C62.7818 25.8933 63.5005 25.688 64.4245 25.688H65.9225C65.9691 25.688 65.9925 25.6647 65.9925 25.618V25.282C65.9925 24.918 65.8851 24.638 65.6705 24.442C65.4558 24.2367 65.1338 24.134 64.7045 24.134C64.3498 24.134 64.0605 24.1993 63.8365 24.33C63.6218 24.4513 63.4865 24.624 63.4305 24.848C63.4025 24.96 63.3371 25.0067 63.2345 24.988L61.8765 24.82C61.8298 24.8107 61.7878 24.7967 61.7505 24.778C61.7225 24.75 61.7131 24.7173 61.7225 24.68C61.7971 24.1107 62.1005 23.644 62.6325 23.28C63.1738 22.916 63.8505 22.734 64.6625 22.734ZM64.3265 28.824C64.7838 28.824 65.1758 28.7027 65.5025 28.46C65.8291 28.2173 65.9925 27.9093 65.9925 27.536V26.878C65.9925 26.8313 65.9691 26.808 65.9225 26.808H64.7465C64.2518 26.808 63.8598 26.9013 63.5705 27.088C63.2905 27.2747 63.1505 27.5407 63.1505 27.886C63.1505 28.1847 63.2578 28.418 63.4725 28.586C63.6965 28.7447 63.9811 28.824 64.3265 28.824ZM72.5789 22.762C72.8776 22.762 73.1389 22.8227 73.3629 22.944C73.4376 22.9813 73.4656 23.0513 73.4469 23.154L73.2089 24.414C73.1996 24.526 73.1342 24.5587 73.0129 24.512C72.8729 24.4653 72.7096 24.442 72.5229 24.442C72.4016 24.442 72.3082 24.4467 72.2429 24.456C71.8509 24.4747 71.5242 24.6147 71.2629 24.876C71.0016 25.128 70.8709 25.4593 70.8709 25.87V29.832C70.8709 29.8787 70.8522 29.9207 70.8149 29.958C70.7869 29.986 70.7496 30 70.7029 30H69.4149C69.3682 30 69.3262 29.986 69.2889 29.958C69.2609 29.9207 69.2469 29.8787 69.2469 29.832V23.014C69.2469 22.9673 69.2609 22.93 69.2889 22.902C69.3262 22.8647 69.3682 22.846 69.4149 22.846H70.7029C70.7496 22.846 70.7869 22.8647 70.8149 22.902C70.8522 22.93 70.8709 22.9673 70.8709 23.014V23.644C70.8709 23.6813 70.8756 23.7047 70.8849 23.714C70.9036 23.714 70.9222 23.7 70.9409 23.672C71.3329 23.0653 71.8789 22.762 72.5789 22.762ZM78.8119 20.368C78.8119 20.3213 78.8259 20.284 78.8539 20.256C78.8912 20.2187 78.9332 20.2 78.9799 20.2H80.2679C80.3145 20.2 80.3519 20.2187 80.3799 20.256C80.4172 20.284 80.4359 20.3213 80.4359 20.368V29.832C80.4359 29.8787 80.4172 29.9207 80.3799 29.958C80.3519 29.986 80.3145 30 80.2679 30H78.9799C78.9332 30 78.8912 29.986 78.8539 29.958C78.8259 29.9207 78.8119 29.8787 78.8119 29.832V29.412C78.8119 29.384 78.8025 29.3653 78.7839 29.356C78.7652 29.3467 78.7465 29.356 78.7279 29.384C78.3172 29.8693 77.7805 30.112 77.1179 30.112C76.4552 30.112 75.8952 29.9393 75.4379 29.594C74.9805 29.2487 74.6492 28.768 74.4439 28.152C74.2759 27.6293 74.1919 27.046 74.1919 26.402C74.1919 25.7393 74.2712 25.17 74.4299 24.694C74.6352 24.078 74.9665 23.5973 75.4239 23.252C75.8812 22.9067 76.4552 22.734 77.1459 22.734C77.7899 22.734 78.3172 22.9673 78.7279 23.434C78.7465 23.4527 78.7652 23.462 78.7839 23.462C78.8025 23.4527 78.8119 23.434 78.8119 23.406V20.368ZM78.4759 28.04C78.6905 27.6573 78.7979 27.116 78.7979 26.416C78.7979 25.688 78.6812 25.1327 78.4479 24.75C78.1959 24.3393 77.8412 24.134 77.3839 24.134C76.9079 24.134 76.5345 24.33 76.2639 24.722C75.9839 25.1327 75.8439 25.702 75.8439 26.43C75.8439 27.0833 75.9559 27.62 76.1799 28.04C76.4412 28.488 76.8379 28.712 77.3699 28.712C77.8459 28.712 78.2145 28.488 78.4759 28.04ZM88.4269 30.112C87.7269 30.112 87.1109 29.9767 86.5789 29.706C86.0469 29.426 85.6362 29.0387 85.3469 28.544C85.0576 28.0493 84.9129 27.4753 84.9129 26.822V23.364C84.9129 22.7107 85.0576 22.1367 85.3469 21.642C85.6362 21.1473 86.0469 20.7647 86.5789 20.494C87.1109 20.2233 87.7269 20.088 88.4269 20.088C89.1176 20.088 89.7289 20.2187 90.2609 20.48C90.7929 20.7413 91.2036 21.11 91.4929 21.586C91.7822 22.062 91.9269 22.6127 91.9269 23.238C91.9269 23.2847 91.9082 23.3267 91.8709 23.364C91.8429 23.392 91.8056 23.406 91.7589 23.406L90.4709 23.476C90.3589 23.476 90.3029 23.4247 90.3029 23.322C90.3029 22.7713 90.1302 22.328 89.7849 21.992C89.4489 21.656 88.9962 21.488 88.4269 21.488C87.8576 21.488 87.4002 21.656 87.0549 21.992C86.7096 22.328 86.5369 22.7713 86.5369 23.322V26.892C86.5369 27.4333 86.7096 27.872 87.0549 28.208C87.4002 28.544 87.8576 28.712 88.4269 28.712C88.9962 28.712 89.4489 28.5487 89.7849 28.222C90.1302 27.886 90.3029 27.4427 90.3029 26.892C90.3029 26.7893 90.3589 26.738 90.4709 26.738L91.7589 26.794C91.8056 26.794 91.8429 26.808 91.8709 26.836C91.9082 26.864 91.9269 26.8967 91.9269 26.934C91.9269 27.5687 91.7822 28.1287 91.4929 28.614C91.2036 29.09 90.7929 29.4587 90.2609 29.72C89.7289 29.9813 89.1176 30.112 88.4269 30.112ZM96.9445 22.734C97.7005 22.734 98.3025 22.958 98.7505 23.406C99.2078 23.854 99.4365 24.4653 99.4365 25.24V29.832C99.4365 29.8787 99.4178 29.9207 99.3805 29.958C99.3525 29.986 99.3152 30 99.2685 30H97.9805C97.9338 30 97.8918 29.986 97.8545 29.958C97.8265 29.9207 97.8125 29.8787 97.8125 29.832V25.576C97.8125 25.1467 97.6912 24.8013 97.4485 24.54C97.2058 24.2693 96.8838 24.134 96.4825 24.134C96.0812 24.134 95.7545 24.2647 95.5025 24.526C95.2598 24.7873 95.1385 25.1327 95.1385 25.562V29.832C95.1385 29.8787 95.1198 29.9207 95.0825 29.958C95.0545 29.986 95.0172 30 94.9705 30H93.6825C93.6358 30 93.5938 29.986 93.5565 29.958C93.5285 29.9207 93.5145 29.8787 93.5145 29.832V20.368C93.5145 20.3213 93.5285 20.284 93.5565 20.256C93.5938 20.2187 93.6358 20.2 93.6825 20.2H94.9705C95.0172 20.2 95.0545 20.2187 95.0825 20.256C95.1198 20.284 95.1385 20.3213 95.1385 20.368V23.462C95.1385 23.49 95.1478 23.5087 95.1665 23.518C95.1852 23.5273 95.1992 23.518 95.2085 23.49C95.5912 22.986 96.1698 22.734 96.9445 22.734ZM103.86 22.734C104.448 22.734 104.966 22.8367 105.414 23.042C105.862 23.2473 106.207 23.532 106.45 23.896C106.692 24.2507 106.814 24.6567 106.814 25.114V29.832C106.814 29.8787 106.795 29.9207 106.758 29.958C106.73 29.986 106.692 30 106.646 30H105.358C105.311 30 105.269 29.986 105.232 29.958C105.204 29.9207 105.19 29.8787 105.19 29.832V29.384C105.19 29.356 105.18 29.342 105.162 29.342C105.143 29.3327 105.124 29.3373 105.106 29.356C104.648 29.86 103.986 30.112 103.118 30.112C102.418 30.112 101.839 29.9347 101.382 29.58C100.934 29.2253 100.71 28.698 100.71 27.998C100.71 27.27 100.962 26.7053 101.466 26.304C101.979 25.8933 102.698 25.688 103.622 25.688H105.12C105.166 25.688 105.19 25.6647 105.19 25.618V25.282C105.19 24.918 105.082 24.638 104.868 24.442C104.653 24.2367 104.331 24.134 103.902 24.134C103.547 24.134 103.258 24.1993 103.034 24.33C102.819 24.4513 102.684 24.624 102.628 24.848C102.6 24.96 102.534 25.0067 102.432 24.988L101.074 24.82C101.027 24.8107 100.985 24.7967 100.948 24.778C100.92 24.75 100.91 24.7173 100.92 24.68C100.994 24.1107 101.298 23.644 101.83 23.28C102.371 22.916 103.048 22.734 103.86 22.734ZM103.524 28.824C103.981 28.824 104.373 28.7027 104.7 28.46C105.026 28.2173 105.19 27.9093 105.19 27.536V26.878C105.19 26.8313 105.166 26.808 105.12 26.808H103.944C103.449 26.808 103.057 26.9013 102.768 27.088C102.488 27.2747 102.348 27.5407 102.348 27.886C102.348 28.1847 102.455 28.418 102.67 28.586C102.894 28.7447 103.178 28.824 103.524 28.824ZM111.874 22.734C112.63 22.734 113.232 22.958 113.68 23.406C114.138 23.854 114.366 24.4653 114.366 25.24V29.832C114.366 29.8787 114.348 29.9207 114.31 29.958C114.282 29.986 114.245 30 114.198 30H112.91C112.864 30 112.822 29.986 112.784 29.958C112.756 29.9207 112.742 29.8787 112.742 29.832V25.576C112.742 25.1467 112.621 24.8013 112.378 24.54C112.136 24.2693 111.814 24.134 111.412 24.134C111.011 24.134 110.684 24.2647 110.432 24.526C110.19 24.7873 110.068 25.1327 110.068 25.562V29.832C110.068 29.8787 110.05 29.9207 110.012 29.958C109.984 29.986 109.947 30 109.9 30H108.612C108.566 30 108.524 29.986 108.486 29.958C108.458 29.9207 108.444 29.8787 108.444 29.832V23.014C108.444 22.9673 108.458 22.93 108.486 22.902C108.524 22.8647 108.566 22.846 108.612 22.846H109.9C109.947 22.846 109.984 22.8647 110.012 22.902C110.05 22.93 110.068 22.9673 110.068 23.014V23.462C110.068 23.49 110.078 23.5087 110.096 23.518C110.115 23.5273 110.129 23.518 110.138 23.49C110.521 22.986 111.1 22.734 111.874 22.734ZM120.441 23.014C120.441 22.9673 120.455 22.93 120.483 22.902C120.521 22.8647 120.563 22.846 120.609 22.846H121.897C121.944 22.846 121.981 22.8647 122.009 22.902C122.047 22.93 122.065 22.9673 122.065 23.014V29.524C122.065 30.6907 121.729 31.5213 121.057 32.016C120.395 32.52 119.522 32.772 118.439 32.772C118.15 32.772 117.865 32.758 117.585 32.73C117.483 32.7207 117.431 32.66 117.431 32.548L117.473 31.4C117.473 31.2973 117.539 31.246 117.669 31.246C117.94 31.274 118.183 31.288 118.397 31.288C119.097 31.288 119.611 31.148 119.937 30.868C120.273 30.5973 120.441 30.1353 120.441 29.482V29.37C120.441 29.342 120.432 29.328 120.413 29.328C120.395 29.3187 120.376 29.3233 120.357 29.342C119.975 29.7527 119.433 29.958 118.733 29.958C118.127 29.958 117.571 29.804 117.067 29.496C116.563 29.188 116.213 28.7167 116.017 28.082C115.896 27.6433 115.835 27.0787 115.835 26.388C115.835 25.6133 115.91 25.0207 116.059 24.61C116.246 24.0407 116.568 23.588 117.025 23.252C117.483 22.9067 118.019 22.734 118.635 22.734C119.373 22.734 119.947 22.9487 120.357 23.378C120.376 23.406 120.395 23.4153 120.413 23.406C120.432 23.3967 120.441 23.378 120.441 23.35V23.014ZM120.343 27.62C120.381 27.48 120.404 27.3307 120.413 27.172C120.432 27.004 120.441 26.738 120.441 26.374C120.441 26.0193 120.432 25.7673 120.413 25.618C120.404 25.4593 120.376 25.3053 120.329 25.156C120.255 24.848 120.101 24.6007 119.867 24.414C119.643 24.2273 119.354 24.134 118.999 24.134C118.663 24.134 118.379 24.2273 118.145 24.414C117.912 24.6007 117.744 24.848 117.641 25.156C117.529 25.4173 117.473 25.828 117.473 26.388C117.473 26.9667 117.52 27.3727 117.613 27.606C117.707 27.9047 117.875 28.152 118.117 28.348C118.369 28.5347 118.668 28.628 119.013 28.628C119.377 28.628 119.671 28.5347 119.895 28.348C120.119 28.1613 120.269 27.9187 120.343 27.62ZM129.777 25.618C129.814 25.8513 129.833 26.1127 129.833 26.402L129.819 26.836C129.819 26.948 129.763 27.004 129.651 27.004H125.269C125.222 27.004 125.199 27.0273 125.199 27.074C125.227 27.382 125.269 27.592 125.325 27.704C125.549 28.376 126.095 28.7167 126.963 28.726C127.598 28.726 128.102 28.4647 128.475 27.942C128.512 27.886 128.559 27.858 128.615 27.858C128.652 27.858 128.685 27.872 128.713 27.9L129.581 28.614C129.665 28.6793 129.679 28.754 129.623 28.838C129.334 29.2487 128.946 29.566 128.461 29.79C127.985 30.014 127.453 30.126 126.865 30.126C126.137 30.126 125.516 29.9627 125.003 29.636C124.499 29.3093 124.13 28.852 123.897 28.264C123.682 27.76 123.575 27.06 123.575 26.164C123.575 25.6227 123.631 25.184 123.743 24.848C123.93 24.1947 124.28 23.6813 124.793 23.308C125.316 22.9253 125.941 22.734 126.669 22.734C128.508 22.734 129.544 23.6953 129.777 25.618ZM126.669 24.134C126.324 24.134 126.034 24.2227 125.801 24.4C125.577 24.568 125.418 24.806 125.325 25.114C125.269 25.2727 125.232 25.478 125.213 25.73C125.194 25.7767 125.213 25.8 125.269 25.8H128.111C128.158 25.8 128.181 25.7767 128.181 25.73C128.162 25.4967 128.134 25.3193 128.097 25.198C128.013 24.862 127.845 24.6007 127.593 24.414C127.35 24.2273 127.042 24.134 126.669 24.134ZM133.868 30.084C133.28 30.084 132.762 30 132.314 29.832C131.875 29.6547 131.535 29.4167 131.292 29.118C131.049 28.81 130.928 28.4693 130.928 28.096V27.97C130.928 27.9233 130.942 27.886 130.97 27.858C131.007 27.8207 131.049 27.802 131.096 27.802H132.328C132.375 27.802 132.412 27.8207 132.44 27.858C132.477 27.886 132.496 27.9233 132.496 27.97V27.998C132.496 28.2313 132.622 28.4367 132.874 28.614C133.135 28.782 133.462 28.866 133.854 28.866C134.227 28.866 134.531 28.7913 134.764 28.642C134.997 28.4833 135.114 28.2873 135.114 28.054C135.114 27.8393 135.016 27.6807 134.82 27.578C134.633 27.466 134.325 27.3493 133.896 27.228L133.364 27.06C132.888 26.92 132.487 26.7707 132.16 26.612C131.833 26.4533 131.558 26.2387 131.334 25.968C131.11 25.688 130.998 25.3333 130.998 24.904C130.998 24.2507 131.255 23.7327 131.768 23.35C132.281 22.958 132.958 22.762 133.798 22.762C134.367 22.762 134.867 22.8553 135.296 23.042C135.725 23.2193 136.057 23.4713 136.29 23.798C136.523 24.1153 136.64 24.4793 136.64 24.89C136.64 24.9367 136.621 24.9787 136.584 25.016C136.556 25.044 136.519 25.058 136.472 25.058H135.282C135.235 25.058 135.193 25.044 135.156 25.016C135.128 24.9787 135.114 24.9367 135.114 24.89C135.114 24.6473 134.993 24.4467 134.75 24.288C134.517 24.12 134.195 24.036 133.784 24.036C133.42 24.036 133.121 24.106 132.888 24.246C132.664 24.3767 132.552 24.5633 132.552 24.806C132.552 25.03 132.659 25.2027 132.874 25.324C133.098 25.436 133.467 25.562 133.98 25.702L134.288 25.786C134.783 25.9353 135.198 26.0893 135.534 26.248C135.87 26.3973 136.155 26.612 136.388 26.892C136.621 27.1627 136.738 27.5173 136.738 27.956C136.738 28.6187 136.477 29.1413 135.954 29.524C135.431 29.8973 134.736 30.084 133.868 30.084Z" fill="#EA7C69"/>
</svg>
