<svg width="91" height="26" viewBox="0 0 91 26" fill="none" xmlns="http://www.w3.org/2000/svg">
<rect width="91" height="26" rx="13" fill="#6BE2BE" fill-opacity="0.24"/>
<path d="M16.298 19.126C15.626 19.126 15.0287 18.9953 14.506 18.734C13.9927 18.4633 13.5913 18.0853 13.302 17.6C13.022 17.1053 12.882 16.5407 12.882 15.906V12.28C12.882 11.6453 13.022 11.09 13.302 10.614C13.5913 10.1287 13.9927 9.75533 14.506 9.494C15.0287 9.22333 15.626 9.088 16.298 9.088C16.97 9.088 17.5627 9.21867 18.076 9.48C18.5893 9.732 18.986 10.0913 19.266 10.558C19.5553 11.0247 19.7 11.566 19.7 12.182V12.196C19.7 12.2427 19.686 12.28 19.658 12.308C19.63 12.336 19.5973 12.35 19.56 12.35L18.496 12.406C18.4027 12.406 18.356 12.364 18.356 12.28V12.238C18.356 11.6407 18.1693 11.16 17.796 10.796C17.4227 10.432 16.9233 10.25 16.298 10.25C15.6727 10.25 15.1687 10.432 14.786 10.796C14.4127 11.16 14.226 11.6407 14.226 12.238V15.962C14.226 16.5593 14.4127 17.04 14.786 17.404C15.1687 17.768 15.6727 17.95 16.298 17.95C16.9233 17.95 17.4227 17.768 17.796 17.404C18.1693 17.04 18.356 16.5593 18.356 15.962V15.934C18.356 15.85 18.4027 15.808 18.496 15.808L19.56 15.864C19.6533 15.864 19.7 15.9107 19.7 16.004C19.7 16.62 19.5553 17.166 19.266 17.642C18.986 18.1087 18.5893 18.4727 18.076 18.734C17.5627 18.9953 16.97 19.126 16.298 19.126ZM24.3822 19.112C23.6916 19.112 23.0896 18.9393 22.5762 18.594C22.0629 18.2393 21.7036 17.7493 21.4982 17.124C21.3302 16.62 21.2462 16.0507 21.2462 15.416C21.2462 14.7533 21.3256 14.1933 21.4842 13.736C21.6896 13.12 22.0489 12.6393 22.5622 12.294C23.0756 11.9393 23.6869 11.762 24.3962 11.762C25.0682 11.762 25.6516 11.9393 26.1462 12.294C26.6502 12.6393 27.0096 13.1153 27.2242 13.722C27.3922 14.198 27.4762 14.758 27.4762 15.402C27.4762 16.0553 27.3922 16.6293 27.2242 17.124C27.0189 17.7493 26.6642 18.2393 26.1602 18.594C25.6562 18.9393 25.0636 19.112 24.3822 19.112ZM24.3822 17.95C24.7556 17.95 25.0822 17.8473 25.3622 17.642C25.6422 17.4273 25.8429 17.1287 25.9642 16.746C26.0669 16.3913 26.1182 15.9527 26.1182 15.43C26.1182 14.9073 26.0716 14.4733 25.9782 14.128C25.8569 13.7453 25.6562 13.4513 25.3762 13.246C25.0962 13.0313 24.7556 12.924 24.3542 12.924C23.9716 12.924 23.6402 13.0313 23.3602 13.246C23.0802 13.4513 22.8796 13.7453 22.7582 14.128C22.6556 14.4547 22.6042 14.8887 22.6042 15.43C22.6042 15.9713 22.6556 16.41 22.7582 16.746C22.8702 17.1287 23.0662 17.4273 23.3462 17.642C23.6356 17.8473 23.9809 17.95 24.3822 17.95ZM36.6419 11.776C37.3512 11.776 37.9112 11.9907 38.3219 12.42C38.7325 12.84 38.9379 13.428 38.9379 14.184V18.86C38.9379 18.9533 38.8912 19 38.7979 19H37.7479C37.6545 19 37.6079 18.9533 37.6079 18.86V14.464C37.6079 13.9973 37.4772 13.6287 37.2159 13.358C36.9639 13.078 36.6232 12.938 36.1939 12.938C35.7645 12.938 35.4145 13.0733 35.1439 13.344C34.8732 13.6147 34.7379 13.9787 34.7379 14.436V18.86C34.7379 18.9533 34.6912 19 34.5979 19H33.5479C33.4545 19 33.4079 18.9533 33.4079 18.86V14.464C33.4079 13.9973 33.2772 13.6287 33.0159 13.358C32.7639 13.078 32.4232 12.938 31.9939 12.938C31.5645 12.938 31.2192 13.0733 30.9579 13.344C30.7059 13.6147 30.5799 13.9787 30.5799 14.436V18.86C30.5799 18.9533 30.5332 19 30.4399 19H29.3759C29.2825 19 29.2359 18.9533 29.2359 18.86V12.014C29.2359 11.9207 29.2825 11.874 29.3759 11.874H30.4399C30.5332 11.874 30.5799 11.9207 30.5799 12.014V12.49C30.5799 12.5087 30.5845 12.5227 30.5939 12.532C30.6125 12.5413 30.6312 12.5367 30.6499 12.518C31.0605 12.0233 31.6579 11.776 32.4419 11.776C32.9179 11.776 33.3239 11.8693 33.6599 12.056C33.9959 12.2333 34.2572 12.4993 34.4439 12.854C34.4719 12.8913 34.4999 12.8913 34.5279 12.854C34.7519 12.49 35.0459 12.2193 35.4099 12.042C35.7832 11.8647 36.1939 11.776 36.6419 11.776ZM46.5843 13.666C46.7616 14.17 46.8503 14.7673 46.8503 15.458C46.8503 16.1113 46.7756 16.676 46.6263 17.152C46.4303 17.7773 46.1083 18.2627 45.6603 18.608C45.2123 18.944 44.6383 19.112 43.9383 19.112C43.6209 19.112 43.3176 19.0513 43.0283 18.93C42.7483 18.7993 42.5056 18.6173 42.3003 18.384C42.2816 18.3653 42.2629 18.3607 42.2443 18.37C42.2349 18.3793 42.2303 18.3933 42.2303 18.412V21.534C42.2303 21.6273 42.1836 21.674 42.0903 21.674H41.0263C40.9329 21.674 40.8863 21.6273 40.8863 21.534V12.014C40.8863 11.9207 40.9329 11.874 41.0263 11.874H42.0903C42.1836 11.874 42.2303 11.9207 42.2303 12.014V12.476C42.2303 12.4947 42.2349 12.5087 42.2443 12.518C42.2629 12.5273 42.2816 12.5227 42.3003 12.504C42.5056 12.2707 42.7483 12.0887 43.0283 11.958C43.3083 11.8273 43.6116 11.762 43.9383 11.762C44.6103 11.762 45.1656 11.93 45.6043 12.266C46.0523 12.5927 46.3789 13.0593 46.5843 13.666ZM45.0443 17.278C45.3429 16.83 45.4923 16.214 45.4923 15.43C45.4923 14.7113 45.3756 14.1327 45.1423 13.694C44.8716 13.1807 44.4283 12.924 43.8123 12.924C43.2709 12.924 42.8603 13.176 42.5803 13.68C42.3563 14.0813 42.2443 14.6693 42.2443 15.444C42.2443 16.228 42.3656 16.8253 42.6083 17.236C42.8789 17.712 43.2756 17.95 43.7983 17.95C44.3583 17.95 44.7736 17.726 45.0443 17.278ZM48.7489 19C48.6556 19 48.6089 18.9533 48.6089 18.86V9.34C48.6089 9.24667 48.6556 9.2 48.7489 9.2H49.8129C49.9062 9.2 49.9529 9.24667 49.9529 9.34V18.86C49.9529 18.9533 49.9062 19 49.8129 19H48.7489ZM57.6718 14.548C57.7092 14.9307 57.7232 15.36 57.7138 15.836C57.7138 15.9293 57.6672 15.976 57.5738 15.976H53.1078C53.0705 15.976 53.0518 15.9947 53.0518 16.032C53.0518 16.3493 53.0798 16.592 53.1358 16.76C53.2385 17.1333 53.4438 17.4273 53.7518 17.642C54.0692 17.8473 54.4658 17.95 54.9418 17.95C55.6325 17.95 56.1645 17.6653 56.5378 17.096C56.5845 17.0027 56.6452 16.9887 56.7198 17.054L57.5178 17.586C57.5832 17.642 57.5972 17.7027 57.5598 17.768C57.2985 18.188 56.9252 18.5193 56.4398 18.762C55.9638 19.0047 55.4225 19.126 54.8158 19.126C54.1345 19.126 53.5605 18.9767 53.0938 18.678C52.6272 18.3793 52.2772 17.9547 52.0438 17.404C51.8198 16.8533 51.7078 16.186 51.7078 15.402C51.7078 14.7207 51.7592 14.2027 51.8618 13.848C52.0298 13.204 52.3658 12.6953 52.8698 12.322C53.3738 11.9487 53.9852 11.762 54.7038 11.762C55.6465 11.762 56.3512 12 56.8178 12.476C57.2845 12.9427 57.5692 13.6333 57.6718 14.548ZM54.7038 12.924C54.3025 12.924 53.9712 13.0267 53.7098 13.232C53.4485 13.428 53.2712 13.694 53.1778 14.03C53.1125 14.2353 53.0705 14.4967 53.0518 14.814C53.0518 14.8513 53.0705 14.87 53.1078 14.87H56.3138C56.3512 14.87 56.3698 14.8513 56.3698 14.814C56.3512 14.506 56.3232 14.2773 56.2858 14.128C56.1925 13.764 56.0058 13.4747 55.7258 13.26C55.4552 13.036 55.1145 12.924 54.7038 12.924ZM62.8143 12.84C62.8143 12.9333 62.7676 12.98 62.6743 12.98H61.1623C61.125 12.98 61.1063 12.9987 61.1063 13.036V16.746C61.1063 17.138 61.195 17.4227 61.3723 17.6C61.5496 17.768 61.825 17.852 62.1983 17.852H62.6043C62.6976 17.852 62.7443 17.8987 62.7443 17.992V18.86C62.7443 18.9533 62.6976 19 62.6043 19C62.3056 19.0187 62.091 19.028 61.9603 19.028C61.251 19.028 60.7143 18.902 60.3503 18.65C59.9956 18.3887 59.8183 17.9127 59.8183 17.222V13.036C59.8183 12.9987 59.7996 12.98 59.7623 12.98H58.9083C58.815 12.98 58.7683 12.9333 58.7683 12.84V12.014C58.7683 11.9207 58.815 11.874 58.9083 11.874H59.7623C59.7996 11.874 59.8183 11.8553 59.8183 11.818V10.166C59.8183 10.0727 59.865 10.026 59.9583 10.026H60.9663C61.0596 10.026 61.1063 10.0727 61.1063 10.166V11.818C61.1063 11.8553 61.125 11.874 61.1623 11.874H62.6743C62.7676 11.874 62.8143 11.9207 62.8143 12.014V12.84ZM70.0722 14.548C70.1096 14.9307 70.1236 15.36 70.1142 15.836C70.1142 15.9293 70.0676 15.976 69.9742 15.976H65.5082C65.4709 15.976 65.4522 15.9947 65.4522 16.032C65.4522 16.3493 65.4802 16.592 65.5362 16.76C65.6389 17.1333 65.8442 17.4273 66.1522 17.642C66.4696 17.8473 66.8662 17.95 67.3422 17.95C68.0329 17.95 68.5649 17.6653 68.9382 17.096C68.9849 17.0027 69.0456 16.9887 69.1202 17.054L69.9182 17.586C69.9836 17.642 69.9976 17.7027 69.9602 17.768C69.6989 18.188 69.3256 18.5193 68.8402 18.762C68.3642 19.0047 67.8229 19.126 67.2162 19.126C66.5349 19.126 65.9609 18.9767 65.4942 18.678C65.0276 18.3793 64.6776 17.9547 64.4442 17.404C64.2202 16.8533 64.1082 16.186 64.1082 15.402C64.1082 14.7207 64.1596 14.2027 64.2622 13.848C64.4302 13.204 64.7662 12.6953 65.2702 12.322C65.7742 11.9487 66.3856 11.762 67.1042 11.762C68.0469 11.762 68.7516 12 69.2182 12.476C69.6849 12.9427 69.9696 13.6333 70.0722 14.548ZM67.1042 12.924C66.7029 12.924 66.3716 13.0267 66.1102 13.232C65.8489 13.428 65.6716 13.694 65.5782 14.03C65.5129 14.2353 65.4709 14.4967 65.4522 14.814C65.4522 14.8513 65.4709 14.87 65.5082 14.87H68.7142C68.7516 14.87 68.7702 14.8513 68.7702 14.814C68.7516 14.506 68.7236 14.2773 68.6862 14.128C68.5929 13.764 68.4062 13.4747 68.1262 13.26C67.8556 13.036 67.5149 12.924 67.1042 12.924ZM76.2341 9.34C76.2341 9.24667 76.2807 9.2 76.3741 9.2H77.4381C77.5314 9.2 77.5781 9.24667 77.5781 9.34V18.86C77.5781 18.9533 77.5314 19 77.4381 19H76.3741C76.2807 19 76.2341 18.9533 76.2341 18.86V18.398C76.2341 18.3793 76.2247 18.3653 76.2061 18.356C76.1967 18.3467 76.1827 18.3513 76.1641 18.37C75.9587 18.6033 75.7161 18.7853 75.4361 18.916C75.1561 19.0467 74.8527 19.112 74.5261 19.112C73.8541 19.112 73.2941 18.9487 72.8461 18.622C72.4074 18.286 72.0854 17.8147 71.8801 17.208C71.7027 16.7133 71.6141 16.116 71.6141 15.416C71.6141 14.7627 71.6887 14.198 71.8381 13.722C72.0341 13.106 72.3561 12.6253 72.8041 12.28C73.2521 11.9347 73.8261 11.762 74.5261 11.762C74.8434 11.762 75.1421 11.8273 75.4221 11.958C75.7114 12.0793 75.9587 12.2567 76.1641 12.49C76.1827 12.5087 76.1967 12.5133 76.2061 12.504C76.2247 12.4947 76.2341 12.4807 76.2341 12.462V9.34ZM75.8841 17.194C76.0987 16.802 76.2061 16.214 76.2061 15.43C76.2061 14.646 76.0894 14.0487 75.8561 13.638C75.5854 13.162 75.1887 12.924 74.6661 12.924C74.1061 12.924 73.6907 13.148 73.4201 13.596C73.1214 14.0627 72.9721 14.6787 72.9721 15.444C72.9721 16.1627 73.0887 16.7413 73.3221 17.18C73.5927 17.6933 74.0361 17.95 74.6521 17.95C75.1934 17.95 75.6041 17.698 75.8841 17.194Z" fill="#50D1AA"/>
</svg>
