<svg width="222" height="96" viewBox="0 0 222 96" fill="none" xmlns="http://www.w3.org/2000/svg">
<g filter="url(#filter0_d_175_778)">
<rect x="20" y="16" width="178" height="48" rx="8" fill="#EA7C69"/>
<path d="M59.798 46.112C59.098 46.112 58.482 45.9767 57.95 45.706C57.418 45.426 57.0073 45.0387 56.718 44.544C56.4287 44.0493 56.284 43.4753 56.284 42.822V39.364C56.284 38.7107 56.4287 38.1367 56.718 37.642C57.0073 37.1473 57.418 36.7647 57.95 36.494C58.482 36.2233 59.098 36.088 59.798 36.088C60.4887 36.088 61.1 36.2187 61.632 36.48C62.164 36.7413 62.5747 37.11 62.864 37.586C63.1533 38.062 63.298 38.6127 63.298 39.238C63.298 39.2847 63.2793 39.3267 63.242 39.364C63.214 39.392 63.1767 39.406 63.13 39.406L61.842 39.476C61.73 39.476 61.674 39.4247 61.674 39.322C61.674 38.7713 61.5013 38.328 61.156 37.992C60.82 37.656 60.3673 37.488 59.798 37.488C59.2287 37.488 58.7713 37.656 58.426 37.992C58.0807 38.328 57.908 38.7713 57.908 39.322V42.892C57.908 43.4333 58.0807 43.872 58.426 44.208C58.7713 44.544 59.2287 44.712 59.798 44.712C60.3673 44.712 60.82 44.5487 61.156 44.222C61.5013 43.886 61.674 43.4427 61.674 42.892C61.674 42.7893 61.73 42.738 61.842 42.738L63.13 42.794C63.1767 42.794 63.214 42.808 63.242 42.836C63.2793 42.864 63.298 42.8967 63.298 42.934C63.298 43.5687 63.1533 44.1287 62.864 44.614C62.5747 45.09 62.164 45.4587 61.632 45.72C61.1 45.9813 60.4887 46.112 59.798 46.112ZM67.9099 46.112C67.1726 46.112 66.5379 45.9253 66.0059 45.552C65.4832 45.1787 65.1146 44.6607 64.8999 43.998C64.7412 43.494 64.6619 42.962 64.6619 42.402C64.6619 41.8047 64.7366 41.2727 64.8859 40.806C65.1006 40.1527 65.4739 39.644 66.0059 39.28C66.5379 38.916 67.1772 38.734 67.9239 38.734C68.6332 38.734 69.2446 38.916 69.7579 39.28C70.2806 39.644 70.6492 40.148 70.8639 40.792C71.0319 41.24 71.1159 41.772 71.1159 42.388C71.1159 42.976 71.0366 43.508 70.8779 43.984C70.6632 44.6467 70.2946 45.1693 69.7719 45.552C69.2492 45.9253 68.6286 46.112 67.9099 46.112ZM67.9099 44.712C68.2552 44.712 68.5492 44.614 68.7919 44.418C69.0439 44.222 69.2259 43.9467 69.3379 43.592C69.4312 43.284 69.4779 42.892 69.4779 42.416C69.4779 41.912 69.4312 41.52 69.3379 41.24C69.2352 40.8853 69.0579 40.6147 68.8059 40.428C68.5539 40.232 68.2459 40.134 67.8819 40.134C67.5366 40.134 67.2379 40.232 66.9859 40.428C66.7339 40.6147 66.5519 40.8853 66.4399 41.24C66.3466 41.5667 66.2999 41.9587 66.2999 42.416C66.2999 42.8733 66.3466 43.2653 66.4399 43.592C66.5426 43.9467 66.7199 44.222 66.9719 44.418C67.2332 44.614 67.5459 44.712 67.9099 44.712ZM76.0812 38.734C76.8372 38.734 77.4392 38.958 77.8872 39.406C78.3445 39.854 78.5732 40.4653 78.5732 41.24V45.832C78.5732 45.8787 78.5545 45.9207 78.5172 45.958C78.4892 45.986 78.4519 46 78.4052 46H77.1172C77.0705 46 77.0285 45.986 76.9912 45.958C76.9632 45.9207 76.9492 45.8787 76.9492 45.832V41.576C76.9492 41.1467 76.8279 40.8013 76.5852 40.54C76.3425 40.2693 76.0205 40.134 75.6192 40.134C75.2179 40.134 74.8912 40.2647 74.6392 40.526C74.3965 40.7873 74.2752 41.1327 74.2752 41.562V45.832C74.2752 45.8787 74.2565 45.9207 74.2192 45.958C74.1912 45.986 74.1539 46 74.1072 46H72.8192C72.7725 46 72.7305 45.986 72.6932 45.958C72.6652 45.9207 72.6512 45.8787 72.6512 45.832V39.014C72.6512 38.9673 72.6652 38.93 72.6932 38.902C72.7305 38.8647 72.7725 38.846 72.8192 38.846H74.1072C74.1539 38.846 74.1912 38.8647 74.2192 38.902C74.2565 38.93 74.2752 38.9673 74.2752 39.014V39.462C74.2752 39.49 74.2845 39.5087 74.3032 39.518C74.3219 39.5273 74.3359 39.518 74.3452 39.49C74.7279 38.986 75.3065 38.734 76.0812 38.734ZM83.9904 38.832C84.0371 38.832 84.0744 38.8507 84.1024 38.888C84.1398 38.916 84.1584 38.9533 84.1584 39V40.106C84.1584 40.1527 84.1398 40.1947 84.1024 40.232C84.0744 40.26 84.0371 40.274 83.9904 40.274H82.6044C82.5578 40.274 82.5344 40.2973 82.5344 40.344V45.832C82.5344 45.8787 82.5158 45.9207 82.4784 45.958C82.4504 45.986 82.4131 46 82.3664 46H81.0784C81.0318 46 80.9898 45.986 80.9524 45.958C80.9244 45.9207 80.9104 45.8787 80.9104 45.832V40.344C80.9104 40.2973 80.8871 40.274 80.8404 40.274H79.9724C79.9258 40.274 79.8838 40.26 79.8464 40.232C79.8184 40.1947 79.8044 40.1527 79.8044 40.106V39C79.8044 38.9533 79.8184 38.916 79.8464 38.888C79.8838 38.8507 79.9258 38.832 79.9724 38.832H80.8404C80.8871 38.832 80.9104 38.8087 80.9104 38.762V38.51C80.9104 37.9033 80.9898 37.4367 81.1484 37.11C81.3071 36.774 81.5684 36.536 81.9324 36.396C82.2964 36.256 82.8098 36.1907 83.4724 36.2H83.9624C84.0091 36.2 84.0464 36.2187 84.0744 36.256C84.1118 36.284 84.1304 36.3213 84.1304 36.368V37.348C84.1304 37.3947 84.1118 37.4367 84.0744 37.474C84.0464 37.502 84.0091 37.516 83.9624 37.516H83.5984C83.1971 37.516 82.9171 37.5953 82.7584 37.754C82.6091 37.9127 82.5344 38.202 82.5344 38.622V38.762C82.5344 38.8087 82.5578 38.832 82.6044 38.832H83.9904ZM86.4544 37.866C86.1651 37.866 85.9271 37.7727 85.7404 37.586C85.5538 37.3993 85.4604 37.1613 85.4604 36.872C85.4604 36.5827 85.5538 36.3447 85.7404 36.158C85.9271 35.9713 86.1651 35.878 86.4544 35.878C86.7438 35.878 86.9818 35.9713 87.1684 36.158C87.3551 36.3447 87.4484 36.5827 87.4484 36.872C87.4484 37.1613 87.3551 37.3993 87.1684 37.586C86.9818 37.7727 86.7438 37.866 86.4544 37.866ZM85.7824 46C85.7358 46 85.6938 45.986 85.6564 45.958C85.6284 45.9207 85.6144 45.8787 85.6144 45.832V39C85.6144 38.9533 85.6284 38.916 85.6564 38.888C85.6938 38.8507 85.7358 38.832 85.7824 38.832H87.0704C87.1171 38.832 87.1544 38.8507 87.1824 38.888C87.2198 38.916 87.2384 38.9533 87.2384 39V45.832C87.2384 45.8787 87.2198 45.9207 87.1824 45.958C87.1544 45.986 87.1171 46 87.0704 46H85.7824ZM92.4305 38.762C92.7291 38.762 92.9905 38.8227 93.2145 38.944C93.2891 38.9813 93.3171 39.0513 93.2985 39.154L93.0605 40.414C93.0511 40.526 92.9858 40.5587 92.8645 40.512C92.7245 40.4653 92.5611 40.442 92.3745 40.442C92.2531 40.442 92.1598 40.4467 92.0945 40.456C91.7025 40.4747 91.3758 40.6147 91.1145 40.876C90.8531 41.128 90.7225 41.4593 90.7225 41.87V45.832C90.7225 45.8787 90.7038 45.9207 90.6665 45.958C90.6385 45.986 90.6011 46 90.5545 46H89.2665C89.2198 46 89.1778 45.986 89.1405 45.958C89.1125 45.9207 89.0985 45.8787 89.0985 45.832V39.014C89.0985 38.9673 89.1125 38.93 89.1405 38.902C89.1778 38.8647 89.2198 38.846 89.2665 38.846H90.5545C90.6011 38.846 90.6385 38.8647 90.6665 38.902C90.7038 38.93 90.7225 38.9673 90.7225 39.014V39.644C90.7225 39.6813 90.7271 39.7047 90.7365 39.714C90.7551 39.714 90.7738 39.7 90.7925 39.672C91.1845 39.0653 91.7305 38.762 92.4305 38.762ZM102.02 38.734C102.739 38.734 103.299 38.9533 103.7 39.392C104.111 39.8213 104.316 40.4233 104.316 41.198V45.832C104.316 45.8787 104.297 45.9207 104.26 45.958C104.232 45.986 104.195 46 104.148 46H102.874C102.827 46 102.785 45.986 102.748 45.958C102.72 45.9207 102.706 45.8787 102.706 45.832V41.534C102.706 41.1047 102.589 40.764 102.356 40.512C102.132 40.26 101.829 40.134 101.446 40.134C101.063 40.134 100.751 40.26 100.508 40.512C100.265 40.764 100.144 41.1 100.144 41.52V45.832C100.144 45.8787 100.125 45.9207 100.088 45.958C100.06 45.986 100.023 46 99.9761 46H98.7021C98.6555 46 98.6135 45.986 98.5761 45.958C98.5481 45.9207 98.5341 45.8787 98.5341 45.832V41.534C98.5341 41.1047 98.4175 40.764 98.1841 40.512C97.9508 40.26 97.6428 40.134 97.2601 40.134C96.9055 40.134 96.6115 40.2367 96.3781 40.442C96.1541 40.6473 96.0235 40.9273 95.9861 41.282V45.832C95.9861 45.8787 95.9675 45.9207 95.9301 45.958C95.9021 45.986 95.8648 46 95.8181 46H94.5301C94.4835 46 94.4415 45.986 94.4041 45.958C94.3761 45.9207 94.3621 45.8787 94.3621 45.832V39.014C94.3621 38.9673 94.3761 38.93 94.4041 38.902C94.4415 38.8647 94.4835 38.846 94.5301 38.846H95.8181C95.8648 38.846 95.9021 38.8647 95.9301 38.902C95.9675 38.93 95.9861 38.9673 95.9861 39.014V39.476C95.9861 39.504 95.9955 39.5227 96.0141 39.532C96.0328 39.5413 96.0515 39.532 96.0701 39.504C96.2755 39.2427 96.5275 39.0513 96.8261 38.93C97.1341 38.7993 97.4748 38.734 97.8481 38.734C98.3055 38.734 98.7068 38.8273 99.0521 39.014C99.3975 39.2007 99.6635 39.4713 99.8501 39.826C99.8781 39.8633 99.9108 39.8633 99.9481 39.826C100.153 39.4527 100.438 39.1773 100.802 39C101.166 38.8227 101.572 38.734 102.02 38.734ZM112.86 36.186C113.448 36.186 113.966 36.3073 114.414 36.55C114.862 36.7927 115.208 37.138 115.45 37.586C115.702 38.0247 115.828 38.5333 115.828 39.112C115.828 39.6813 115.702 40.1853 115.45 40.624C115.198 41.0627 114.839 41.4033 114.372 41.646C113.915 41.8793 113.383 41.996 112.776 41.996H110.536C110.49 41.996 110.466 42.0193 110.466 42.066V45.832C110.466 45.8787 110.448 45.9207 110.41 45.958C110.382 45.986 110.345 46 110.298 46H109.01C108.964 46 108.922 45.986 108.884 45.958C108.856 45.9207 108.842 45.8787 108.842 45.832V36.354C108.842 36.3073 108.856 36.27 108.884 36.242C108.922 36.2047 108.964 36.186 109.01 36.186H112.86ZM112.622 40.68C113.098 40.68 113.481 40.54 113.77 40.26C114.06 39.98 114.204 39.6113 114.204 39.154C114.204 38.6873 114.06 38.3093 113.77 38.02C113.481 37.7307 113.098 37.586 112.622 37.586H110.536C110.49 37.586 110.466 37.6093 110.466 37.656V40.61C110.466 40.6567 110.49 40.68 110.536 40.68H112.622ZM119.746 38.734C120.334 38.734 120.852 38.8367 121.3 39.042C121.748 39.2473 122.094 39.532 122.336 39.896C122.579 40.2507 122.7 40.6567 122.7 41.114V45.832C122.7 45.8787 122.682 45.9207 122.644 45.958C122.616 45.986 122.579 46 122.532 46H121.244C121.198 46 121.156 45.986 121.118 45.958C121.09 45.9207 121.076 45.8787 121.076 45.832V45.384C121.076 45.356 121.067 45.342 121.048 45.342C121.03 45.3327 121.011 45.3373 120.992 45.356C120.535 45.86 119.872 46.112 119.004 46.112C118.304 46.112 117.726 45.9347 117.268 45.58C116.82 45.2253 116.596 44.698 116.596 43.998C116.596 43.27 116.848 42.7053 117.352 42.304C117.866 41.8933 118.584 41.688 119.508 41.688H121.006C121.053 41.688 121.076 41.6647 121.076 41.618V41.282C121.076 40.918 120.969 40.638 120.754 40.442C120.54 40.2367 120.218 40.134 119.788 40.134C119.434 40.134 119.144 40.1993 118.92 40.33C118.706 40.4513 118.57 40.624 118.514 40.848C118.486 40.96 118.421 41.0067 118.318 40.988L116.96 40.82C116.914 40.8107 116.872 40.7967 116.834 40.778C116.806 40.75 116.797 40.7173 116.806 40.68C116.881 40.1107 117.184 39.644 117.716 39.28C118.258 38.916 118.934 38.734 119.746 38.734ZM119.41 44.824C119.868 44.824 120.26 44.7027 120.586 44.46C120.913 44.2173 121.076 43.9093 121.076 43.536V42.878C121.076 42.8313 121.053 42.808 121.006 42.808H119.83C119.336 42.808 118.944 42.9013 118.654 43.088C118.374 43.2747 118.234 43.5407 118.234 43.886C118.234 44.1847 118.342 44.418 118.556 44.586C118.78 44.7447 119.065 44.824 119.41 44.824ZM124.041 48.786C124.013 48.786 123.989 48.7673 123.971 48.73C123.952 48.702 123.943 48.6647 123.943 48.618V47.61C123.943 47.5633 123.957 47.5213 123.985 47.484C124.022 47.456 124.064 47.442 124.111 47.442H124.125C124.507 47.4327 124.806 47.3907 125.021 47.316C125.235 47.2507 125.413 47.12 125.553 46.924C125.693 46.728 125.819 46.434 125.931 46.042C125.94 46.0233 125.94 45.9953 125.931 45.958L123.621 39.028C123.611 39.0093 123.607 38.986 123.607 38.958C123.607 38.874 123.653 38.832 123.747 38.832H125.119C125.221 38.832 125.287 38.8787 125.315 38.972L126.715 43.9C126.724 43.928 126.738 43.942 126.757 43.942C126.775 43.942 126.789 43.928 126.799 43.9L128.199 38.972C128.227 38.8787 128.292 38.832 128.395 38.832H129.725C129.781 38.832 129.818 38.8507 129.837 38.888C129.865 38.916 129.869 38.9627 129.851 39.028L127.387 46.392C127.153 47.0547 126.925 47.5493 126.701 47.876C126.477 48.2027 126.169 48.436 125.777 48.576C125.394 48.716 124.848 48.786 124.139 48.786H124.041ZM138.688 38.734C139.407 38.734 139.967 38.9533 140.368 39.392C140.779 39.8213 140.984 40.4233 140.984 41.198V45.832C140.984 45.8787 140.965 45.9207 140.928 45.958C140.9 45.986 140.863 46 140.816 46H139.542C139.495 46 139.453 45.986 139.416 45.958C139.388 45.9207 139.374 45.8787 139.374 45.832V41.534C139.374 41.1047 139.257 40.764 139.024 40.512C138.8 40.26 138.497 40.134 138.114 40.134C137.731 40.134 137.419 40.26 137.176 40.512C136.933 40.764 136.812 41.1 136.812 41.52V45.832C136.812 45.8787 136.793 45.9207 136.756 45.958C136.728 45.986 136.691 46 136.644 46H135.37C135.323 46 135.281 45.986 135.244 45.958C135.216 45.9207 135.202 45.8787 135.202 45.832V41.534C135.202 41.1047 135.085 40.764 134.852 40.512C134.619 40.26 134.311 40.134 133.928 40.134C133.573 40.134 133.279 40.2367 133.046 40.442C132.822 40.6473 132.691 40.9273 132.654 41.282V45.832C132.654 45.8787 132.635 45.9207 132.598 45.958C132.57 45.986 132.533 46 132.486 46H131.198C131.151 46 131.109 45.986 131.072 45.958C131.044 45.9207 131.03 45.8787 131.03 45.832V39.014C131.03 38.9673 131.044 38.93 131.072 38.902C131.109 38.8647 131.151 38.846 131.198 38.846H132.486C132.533 38.846 132.57 38.8647 132.598 38.902C132.635 38.93 132.654 38.9673 132.654 39.014V39.476C132.654 39.504 132.663 39.5227 132.682 39.532C132.701 39.5413 132.719 39.532 132.738 39.504C132.943 39.2427 133.195 39.0513 133.494 38.93C133.802 38.7993 134.143 38.734 134.516 38.734C134.973 38.734 135.375 38.8273 135.72 39.014C136.065 39.2007 136.331 39.4713 136.518 39.826C136.546 39.8633 136.579 39.8633 136.616 39.826C136.821 39.4527 137.106 39.1773 137.47 39C137.834 38.8227 138.24 38.734 138.688 38.734ZM148.617 41.618C148.654 41.8513 148.673 42.1127 148.673 42.402L148.659 42.836C148.659 42.948 148.603 43.004 148.491 43.004H144.109C144.062 43.004 144.039 43.0273 144.039 43.074C144.067 43.382 144.109 43.592 144.165 43.704C144.389 44.376 144.935 44.7167 145.803 44.726C146.438 44.726 146.942 44.4647 147.315 43.942C147.352 43.886 147.399 43.858 147.455 43.858C147.492 43.858 147.525 43.872 147.553 43.9L148.421 44.614C148.505 44.6793 148.519 44.754 148.463 44.838C148.174 45.2487 147.786 45.566 147.301 45.79C146.825 46.014 146.293 46.126 145.705 46.126C144.977 46.126 144.356 45.9627 143.843 45.636C143.339 45.3093 142.97 44.852 142.737 44.264C142.522 43.76 142.415 43.06 142.415 42.164C142.415 41.6227 142.471 41.184 142.583 40.848C142.77 40.1947 143.12 39.6813 143.633 39.308C144.156 38.9253 144.781 38.734 145.509 38.734C147.348 38.734 148.384 39.6953 148.617 41.618ZM145.509 40.134C145.164 40.134 144.874 40.2227 144.641 40.4C144.417 40.568 144.258 40.806 144.165 41.114C144.109 41.2727 144.072 41.478 144.053 41.73C144.034 41.7767 144.053 41.8 144.109 41.8H146.951C146.998 41.8 147.021 41.7767 147.021 41.73C147.002 41.4967 146.974 41.3193 146.937 41.198C146.853 40.862 146.685 40.6007 146.433 40.414C146.19 40.2273 145.882 40.134 145.509 40.134ZM153.587 38.734C154.343 38.734 154.945 38.958 155.393 39.406C155.85 39.854 156.079 40.4653 156.079 41.24V45.832C156.079 45.8787 156.06 45.9207 156.023 45.958C155.995 45.986 155.958 46 155.911 46H154.623C154.576 46 154.534 45.986 154.497 45.958C154.469 45.9207 154.455 45.8787 154.455 45.832V41.576C154.455 41.1467 154.334 40.8013 154.091 40.54C153.848 40.2693 153.526 40.134 153.125 40.134C152.724 40.134 152.397 40.2647 152.145 40.526C151.902 40.7873 151.781 41.1327 151.781 41.562V45.832C151.781 45.8787 151.762 45.9207 151.725 45.958C151.697 45.986 151.66 46 151.613 46H150.325C150.278 46 150.236 45.986 150.199 45.958C150.171 45.9207 150.157 45.8787 150.157 45.832V39.014C150.157 38.9673 150.171 38.93 150.199 38.902C150.236 38.8647 150.278 38.846 150.325 38.846H151.613C151.66 38.846 151.697 38.8647 151.725 38.902C151.762 38.93 151.781 38.9673 151.781 39.014V39.462C151.781 39.49 151.79 39.5087 151.809 39.518C151.828 39.5273 151.842 39.518 151.851 39.49C152.234 38.986 152.812 38.734 153.587 38.734ZM161.566 39.994C161.566 40.0407 161.548 40.0827 161.51 40.12C161.482 40.148 161.445 40.162 161.398 40.162H159.97C159.924 40.162 159.9 40.1853 159.9 40.232V43.606C159.9 43.9607 159.975 44.2173 160.124 44.376C160.283 44.5347 160.53 44.614 160.866 44.614H161.286C161.333 44.614 161.37 44.6327 161.398 44.67C161.436 44.698 161.454 44.7353 161.454 44.782V45.832C161.454 45.9347 161.398 45.9953 161.286 46.014L160.558 46.028C159.821 46.028 159.27 45.902 158.906 45.65C158.542 45.398 158.356 44.922 158.346 44.222V40.232C158.346 40.1853 158.323 40.162 158.276 40.162H157.478C157.432 40.162 157.39 40.148 157.352 40.12C157.324 40.0827 157.31 40.0407 157.31 39.994V39.014C157.31 38.9673 157.324 38.93 157.352 38.902C157.39 38.8647 157.432 38.846 157.478 38.846H158.276C158.323 38.846 158.346 38.8227 158.346 38.776V37.138C158.346 37.0913 158.36 37.054 158.388 37.026C158.426 36.9887 158.468 36.97 158.514 36.97H159.732C159.779 36.97 159.816 36.9887 159.844 37.026C159.882 37.054 159.9 37.0913 159.9 37.138V38.776C159.9 38.8227 159.924 38.846 159.97 38.846H161.398C161.445 38.846 161.482 38.8647 161.51 38.902C161.548 38.93 161.566 38.9673 161.566 39.014V39.994Z" fill="#FAFAFA"/>
</g>
<defs>
<filter id="filter0_d_175_778" x="-4" y="0" width="226" height="96" filterUnits="userSpaceOnUse" color-interpolation-filters="sRGB">
<feFlood flood-opacity="0" result="BackgroundImageFix"/>
<feColorMatrix in="SourceAlpha" type="matrix" values="0 0 0 0 0 0 0 0 0 0 0 0 0 0 0 0 0 0 127 0" result="hardAlpha"/>
<feOffset dy="8"/>
<feGaussianBlur stdDeviation="12"/>
<feColorMatrix type="matrix" values="0 0 0 0 0.572549 0 0 0 0 0.533333 0 0 0 0 0.878431 0 0 0 0.3 0"/>
<feBlend mode="normal" in2="BackgroundImageFix" result="effect1_dropShadow_175_778"/>
<feBlend mode="normal" in="SourceGraphic" in2="effect1_dropShadow_175_778" result="shape"/>
</filter>
</defs>
</svg>
