<svg width="409" height="88" viewBox="0 0 409 88" fill="none" xmlns="http://www.w3.org/2000/svg">
<g filter="url(#filter0_d_196_2091)">
<rect x="24" y="16" width="361" height="48" rx="8" fill="#EA7C69"/>
<path d="M144.298 46.112C143.598 46.112 142.982 45.9767 142.45 45.706C141.918 45.426 141.507 45.0387 141.218 44.544C140.929 44.0493 140.784 43.4753 140.784 42.822V39.364C140.784 38.7107 140.929 38.1367 141.218 37.642C141.507 37.1473 141.918 36.7647 142.45 36.494C142.982 36.2233 143.598 36.088 144.298 36.088C144.989 36.088 145.6 36.2187 146.132 36.48C146.664 36.7413 147.075 37.11 147.364 37.586C147.653 38.062 147.798 38.6127 147.798 39.238C147.798 39.2847 147.779 39.3267 147.742 39.364C147.714 39.392 147.677 39.406 147.63 39.406L146.342 39.476C146.23 39.476 146.174 39.4247 146.174 39.322C146.174 38.7713 146.001 38.328 145.656 37.992C145.32 37.656 144.867 37.488 144.298 37.488C143.729 37.488 143.271 37.656 142.926 37.992C142.581 38.328 142.408 38.7713 142.408 39.322V42.892C142.408 43.4333 142.581 43.872 142.926 44.208C143.271 44.544 143.729 44.712 144.298 44.712C144.867 44.712 145.32 44.5487 145.656 44.222C146.001 43.886 146.174 43.4427 146.174 42.892C146.174 42.7893 146.23 42.738 146.342 42.738L147.63 42.794C147.677 42.794 147.714 42.808 147.742 42.836C147.779 42.864 147.798 42.8967 147.798 42.934C147.798 43.5687 147.653 44.1287 147.364 44.614C147.075 45.09 146.664 45.4587 146.132 45.72C145.6 45.9813 144.989 46.112 144.298 46.112ZM152.41 46.112C151.673 46.112 151.038 45.9253 150.506 45.552C149.983 45.1787 149.615 44.6607 149.4 43.998C149.241 43.494 149.162 42.962 149.162 42.402C149.162 41.8047 149.237 41.2727 149.386 40.806C149.601 40.1527 149.974 39.644 150.506 39.28C151.038 38.916 151.677 38.734 152.424 38.734C153.133 38.734 153.745 38.916 154.258 39.28C154.781 39.644 155.149 40.148 155.364 40.792C155.532 41.24 155.616 41.772 155.616 42.388C155.616 42.976 155.537 43.508 155.378 43.984C155.163 44.6467 154.795 45.1693 154.272 45.552C153.749 45.9253 153.129 46.112 152.41 46.112ZM152.41 44.712C152.755 44.712 153.049 44.614 153.292 44.418C153.544 44.222 153.726 43.9467 153.838 43.592C153.931 43.284 153.978 42.892 153.978 42.416C153.978 41.912 153.931 41.52 153.838 41.24C153.735 40.8853 153.558 40.6147 153.306 40.428C153.054 40.232 152.746 40.134 152.382 40.134C152.037 40.134 151.738 40.232 151.486 40.428C151.234 40.6147 151.052 40.8853 150.94 41.24C150.847 41.5667 150.8 41.9587 150.8 42.416C150.8 42.8733 150.847 43.2653 150.94 43.592C151.043 43.9467 151.22 44.222 151.472 44.418C151.733 44.614 152.046 44.712 152.41 44.712ZM160.581 38.734C161.337 38.734 161.939 38.958 162.387 39.406C162.845 39.854 163.073 40.4653 163.073 41.24V45.832C163.073 45.8787 163.055 45.9207 163.017 45.958C162.989 45.986 162.952 46 162.905 46H161.617C161.571 46 161.529 45.986 161.491 45.958C161.463 45.9207 161.449 45.8787 161.449 45.832V41.576C161.449 41.1467 161.328 40.8013 161.085 40.54C160.843 40.2693 160.521 40.134 160.119 40.134C159.718 40.134 159.391 40.2647 159.139 40.526C158.897 40.7873 158.775 41.1327 158.775 41.562V45.832C158.775 45.8787 158.757 45.9207 158.719 45.958C158.691 45.986 158.654 46 158.607 46H157.319C157.273 46 157.231 45.986 157.193 45.958C157.165 45.9207 157.151 45.8787 157.151 45.832V39.014C157.151 38.9673 157.165 38.93 157.193 38.902C157.231 38.8647 157.273 38.846 157.319 38.846H158.607C158.654 38.846 158.691 38.8647 158.719 38.902C158.757 38.93 158.775 38.9673 158.775 39.014V39.462C158.775 39.49 158.785 39.5087 158.803 39.518C158.822 39.5273 158.836 39.518 158.845 39.49C159.228 38.986 159.807 38.734 160.581 38.734ZM168.56 39.994C168.56 40.0407 168.542 40.0827 168.504 40.12C168.476 40.148 168.439 40.162 168.392 40.162H166.964C166.918 40.162 166.894 40.1853 166.894 40.232V43.606C166.894 43.9607 166.969 44.2173 167.118 44.376C167.277 44.5347 167.524 44.614 167.86 44.614H168.28C168.327 44.614 168.364 44.6327 168.392 44.67C168.43 44.698 168.448 44.7353 168.448 44.782V45.832C168.448 45.9347 168.392 45.9953 168.28 46.014L167.552 46.028C166.815 46.028 166.264 45.902 165.9 45.65C165.536 45.398 165.35 44.922 165.34 44.222V40.232C165.34 40.1853 165.317 40.162 165.27 40.162H164.472C164.426 40.162 164.384 40.148 164.346 40.12C164.318 40.0827 164.304 40.0407 164.304 39.994V39.014C164.304 38.9673 164.318 38.93 164.346 38.902C164.384 38.8647 164.426 38.846 164.472 38.846H165.27C165.317 38.846 165.34 38.8227 165.34 38.776V37.138C165.34 37.0913 165.354 37.054 165.382 37.026C165.42 36.9887 165.462 36.97 165.508 36.97H166.726C166.773 36.97 166.81 36.9887 166.838 37.026C166.876 37.054 166.894 37.0913 166.894 37.138V38.776C166.894 38.8227 166.918 38.846 166.964 38.846H168.392C168.439 38.846 168.476 38.8647 168.504 38.902C168.542 38.93 168.56 38.9673 168.56 39.014V39.994ZM170.927 37.866C170.637 37.866 170.399 37.7727 170.213 37.586C170.026 37.3993 169.933 37.1613 169.933 36.872C169.933 36.5827 170.026 36.3447 170.213 36.158C170.399 35.9713 170.637 35.878 170.927 35.878C171.216 35.878 171.454 35.9713 171.641 36.158C171.827 36.3447 171.921 36.5827 171.921 36.872C171.921 37.1613 171.827 37.3993 171.641 37.586C171.454 37.7727 171.216 37.866 170.927 37.866ZM170.255 46C170.208 46 170.166 45.986 170.129 45.958C170.101 45.9207 170.087 45.8787 170.087 45.832V39C170.087 38.9533 170.101 38.916 170.129 38.888C170.166 38.8507 170.208 38.832 170.255 38.832H171.543C171.589 38.832 171.627 38.8507 171.655 38.888C171.692 38.916 171.711 38.9533 171.711 39V45.832C171.711 45.8787 171.692 45.9207 171.655 45.958C171.627 45.986 171.589 46 171.543 46H170.255ZM177.001 38.734C177.757 38.734 178.359 38.958 178.807 39.406C179.264 39.854 179.493 40.4653 179.493 41.24V45.832C179.493 45.8787 179.474 45.9207 179.437 45.958C179.409 45.986 179.372 46 179.325 46H178.037C177.99 46 177.948 45.986 177.911 45.958C177.883 45.9207 177.869 45.8787 177.869 45.832V41.576C177.869 41.1467 177.748 40.8013 177.505 40.54C177.262 40.2693 176.94 40.134 176.539 40.134C176.138 40.134 175.811 40.2647 175.559 40.526C175.316 40.7873 175.195 41.1327 175.195 41.562V45.832C175.195 45.8787 175.176 45.9207 175.139 45.958C175.111 45.986 175.074 46 175.027 46H173.739C173.692 46 173.65 45.986 173.613 45.958C173.585 45.9207 173.571 45.8787 173.571 45.832V39.014C173.571 38.9673 173.585 38.93 173.613 38.902C173.65 38.8647 173.692 38.846 173.739 38.846H175.027C175.074 38.846 175.111 38.8647 175.139 38.902C175.176 38.93 175.195 38.9673 175.195 39.014V39.462C175.195 39.49 175.204 39.5087 175.223 39.518C175.242 39.5273 175.256 39.518 175.265 39.49C175.648 38.986 176.226 38.734 177.001 38.734ZM185.414 39.014C185.414 38.9673 185.428 38.93 185.456 38.902C185.494 38.8647 185.536 38.846 185.582 38.846H186.856C186.903 38.846 186.94 38.8647 186.968 38.902C187.006 38.93 187.024 38.9673 187.024 39.014V45.832C187.024 45.8787 187.006 45.9207 186.968 45.958C186.94 45.986 186.903 46 186.856 46H185.582C185.536 46 185.494 45.986 185.456 45.958C185.428 45.9207 185.414 45.8787 185.414 45.832V45.384C185.414 45.356 185.405 45.3373 185.386 45.328C185.368 45.3187 185.349 45.328 185.33 45.356C184.948 45.8507 184.374 46.098 183.608 46.098C182.899 46.098 182.302 45.8927 181.816 45.482C181.34 45.0713 181.102 44.488 181.102 43.732V39.014C181.102 38.9673 181.116 38.93 181.144 38.902C181.182 38.8647 181.224 38.846 181.27 38.846H182.558C182.605 38.846 182.642 38.8647 182.67 38.902C182.708 38.93 182.726 38.9673 182.726 39.014V43.27C182.726 43.7087 182.838 44.0587 183.062 44.32C183.296 44.5813 183.618 44.712 184.028 44.712C184.448 44.712 184.784 44.5813 185.036 44.32C185.288 44.0587 185.414 43.7087 185.414 43.27V39.014ZM194.795 41.618C194.832 41.8513 194.851 42.1127 194.851 42.402L194.837 42.836C194.837 42.948 194.781 43.004 194.669 43.004H190.287C190.24 43.004 190.217 43.0273 190.217 43.074C190.245 43.382 190.287 43.592 190.343 43.704C190.567 44.376 191.113 44.7167 191.981 44.726C192.615 44.726 193.119 44.4647 193.493 43.942C193.53 43.886 193.577 43.858 193.633 43.858C193.67 43.858 193.703 43.872 193.731 43.9L194.599 44.614C194.683 44.6793 194.697 44.754 194.641 44.838C194.351 45.2487 193.964 45.566 193.479 45.79C193.003 46.014 192.471 46.126 191.883 46.126C191.155 46.126 190.534 45.9627 190.021 45.636C189.517 45.3093 189.148 44.852 188.915 44.264C188.7 43.76 188.593 43.06 188.593 42.164C188.593 41.6227 188.649 41.184 188.761 40.848C188.947 40.1947 189.297 39.6813 189.811 39.308C190.333 38.9253 190.959 38.734 191.687 38.734C193.525 38.734 194.561 39.6953 194.795 41.618ZM191.687 40.134C191.341 40.134 191.052 40.2227 190.819 40.4C190.595 40.568 190.436 40.806 190.343 41.114C190.287 41.2727 190.249 41.478 190.231 41.73C190.212 41.7767 190.231 41.8 190.287 41.8H193.129C193.175 41.8 193.199 41.7767 193.199 41.73C193.18 41.4967 193.152 41.3193 193.115 41.198C193.031 40.862 192.863 40.6007 192.611 40.414C192.368 40.2273 192.06 40.134 191.687 40.134ZM202.932 39.994C202.932 40.0407 202.913 40.0827 202.876 40.12C202.848 40.148 202.81 40.162 202.764 40.162H201.336C201.289 40.162 201.266 40.1853 201.266 40.232V43.606C201.266 43.9607 201.34 44.2173 201.49 44.376C201.648 44.5347 201.896 44.614 202.232 44.614H202.652C202.698 44.614 202.736 44.6327 202.764 44.67C202.801 44.698 202.82 44.7353 202.82 44.782V45.832C202.82 45.9347 202.764 45.9953 202.652 46.014L201.924 46.028C201.186 46.028 200.636 45.902 200.272 45.65C199.908 45.398 199.721 44.922 199.712 44.222V40.232C199.712 40.1853 199.688 40.162 199.642 40.162H198.844C198.797 40.162 198.755 40.148 198.718 40.12C198.69 40.0827 198.676 40.0407 198.676 39.994V39.014C198.676 38.9673 198.69 38.93 198.718 38.902C198.755 38.8647 198.797 38.846 198.844 38.846H199.642C199.688 38.846 199.712 38.8227 199.712 38.776V37.138C199.712 37.0913 199.726 37.054 199.754 37.026C199.791 36.9887 199.833 36.97 199.88 36.97H201.098C201.144 36.97 201.182 36.9887 201.21 37.026C201.247 37.054 201.266 37.0913 201.266 37.138V38.776C201.266 38.8227 201.289 38.846 201.336 38.846H202.764C202.81 38.846 202.848 38.8647 202.876 38.902C202.913 38.93 202.932 38.9673 202.932 39.014V39.994ZM207.275 46.112C206.538 46.112 205.903 45.9253 205.371 45.552C204.848 45.1787 204.48 44.6607 204.265 43.998C204.106 43.494 204.027 42.962 204.027 42.402C204.027 41.8047 204.102 41.2727 204.251 40.806C204.466 40.1527 204.839 39.644 205.371 39.28C205.903 38.916 206.542 38.734 207.289 38.734C207.998 38.734 208.61 38.916 209.123 39.28C209.646 39.644 210.014 40.148 210.229 40.792C210.397 41.24 210.481 41.772 210.481 42.388C210.481 42.976 210.402 43.508 210.243 43.984C210.028 44.6467 209.66 45.1693 209.137 45.552C208.614 45.9253 207.994 46.112 207.275 46.112ZM207.275 44.712C207.62 44.712 207.914 44.614 208.157 44.418C208.409 44.222 208.591 43.9467 208.703 43.592C208.796 43.284 208.843 42.892 208.843 42.416C208.843 41.912 208.796 41.52 208.703 41.24C208.6 40.8853 208.423 40.6147 208.171 40.428C207.919 40.232 207.611 40.134 207.247 40.134C206.902 40.134 206.603 40.232 206.351 40.428C206.099 40.6147 205.917 40.8853 205.805 41.24C205.712 41.5667 205.665 41.9587 205.665 42.416C205.665 42.8733 205.712 43.2653 205.805 43.592C205.908 43.9467 206.085 44.222 206.337 44.418C206.598 44.614 206.911 44.712 207.275 44.712ZM218.907 36.186C219.495 36.186 220.013 36.3073 220.461 36.55C220.909 36.7927 221.255 37.138 221.497 37.586C221.749 38.0247 221.875 38.5333 221.875 39.112C221.875 39.6813 221.749 40.1853 221.497 40.624C221.245 41.0627 220.886 41.4033 220.419 41.646C219.962 41.8793 219.43 41.996 218.823 41.996H216.583C216.537 41.996 216.513 42.0193 216.513 42.066V45.832C216.513 45.8787 216.495 45.9207 216.457 45.958C216.429 45.986 216.392 46 216.345 46H215.057C215.011 46 214.969 45.986 214.931 45.958C214.903 45.9207 214.889 45.8787 214.889 45.832V36.354C214.889 36.3073 214.903 36.27 214.931 36.242C214.969 36.2047 215.011 36.186 215.057 36.186H218.907ZM218.669 40.68C219.145 40.68 219.528 40.54 219.817 40.26C220.107 39.98 220.251 39.6113 220.251 39.154C220.251 38.6873 220.107 38.3093 219.817 38.02C219.528 37.7307 219.145 37.586 218.669 37.586H216.583C216.537 37.586 216.513 37.6093 216.513 37.656V40.61C216.513 40.6567 216.537 40.68 216.583 40.68H218.669ZM225.793 38.734C226.381 38.734 226.899 38.8367 227.347 39.042C227.795 39.2473 228.141 39.532 228.383 39.896C228.626 40.2507 228.747 40.6567 228.747 41.114V45.832C228.747 45.8787 228.729 45.9207 228.691 45.958C228.663 45.986 228.626 46 228.579 46H227.291C227.245 46 227.203 45.986 227.165 45.958C227.137 45.9207 227.123 45.8787 227.123 45.832V45.384C227.123 45.356 227.114 45.342 227.095 45.342C227.077 45.3327 227.058 45.3373 227.039 45.356C226.582 45.86 225.919 46.112 225.051 46.112C224.351 46.112 223.773 45.9347 223.315 45.58C222.867 45.2253 222.643 44.698 222.643 43.998C222.643 43.27 222.895 42.7053 223.399 42.304C223.913 41.8933 224.631 41.688 225.555 41.688H227.053C227.1 41.688 227.123 41.6647 227.123 41.618V41.282C227.123 40.918 227.016 40.638 226.801 40.442C226.587 40.2367 226.265 40.134 225.835 40.134C225.481 40.134 225.191 40.1993 224.967 40.33C224.753 40.4513 224.617 40.624 224.561 40.848C224.533 40.96 224.468 41.0067 224.365 40.988L223.007 40.82C222.961 40.8107 222.919 40.7967 222.881 40.778C222.853 40.75 222.844 40.7173 222.853 40.68C222.928 40.1107 223.231 39.644 223.763 39.28C224.305 38.916 224.981 38.734 225.793 38.734ZM225.457 44.824C225.915 44.824 226.307 44.7027 226.633 44.46C226.96 44.2173 227.123 43.9093 227.123 43.536V42.878C227.123 42.8313 227.1 42.808 227.053 42.808H225.877C225.383 42.808 224.991 42.9013 224.701 43.088C224.421 43.2747 224.281 43.5407 224.281 43.886C224.281 44.1847 224.389 44.418 224.603 44.586C224.827 44.7447 225.112 44.824 225.457 44.824ZM230.087 48.786C230.059 48.786 230.036 48.7673 230.017 48.73C229.999 48.702 229.989 48.6647 229.989 48.618V47.61C229.989 47.5633 230.003 47.5213 230.031 47.484C230.069 47.456 230.111 47.442 230.157 47.442H230.171C230.554 47.4327 230.853 47.3907 231.067 47.316C231.282 47.2507 231.459 47.12 231.599 46.924C231.739 46.728 231.865 46.434 231.977 46.042C231.987 46.0233 231.987 45.9953 231.977 45.958L229.667 39.028C229.658 39.0093 229.653 38.986 229.653 38.958C229.653 38.874 229.7 38.832 229.793 38.832H231.165C231.268 38.832 231.333 38.8787 231.361 38.972L232.761 43.9C232.771 43.928 232.785 43.942 232.803 43.942C232.822 43.942 232.836 43.928 232.845 43.9L234.245 38.972C234.273 38.8787 234.339 38.832 234.441 38.832H235.771C235.827 38.832 235.865 38.8507 235.883 38.888C235.911 38.916 235.916 38.9627 235.897 39.028L233.433 46.392C233.2 47.0547 232.971 47.5493 232.747 47.876C232.523 48.2027 232.215 48.436 231.823 48.576C231.441 48.716 230.895 48.786 230.185 48.786H230.087ZM244.735 38.734C245.454 38.734 246.014 38.9533 246.415 39.392C246.826 39.8213 247.031 40.4233 247.031 41.198V45.832C247.031 45.8787 247.012 45.9207 246.975 45.958C246.947 45.986 246.91 46 246.863 46H245.589C245.542 46 245.5 45.986 245.463 45.958C245.435 45.9207 245.421 45.8787 245.421 45.832V41.534C245.421 41.1047 245.304 40.764 245.071 40.512C244.847 40.26 244.544 40.134 244.161 40.134C243.778 40.134 243.466 40.26 243.223 40.512C242.98 40.764 242.859 41.1 242.859 41.52V45.832C242.859 45.8787 242.84 45.9207 242.803 45.958C242.775 45.986 242.738 46 242.691 46H241.417C241.37 46 241.328 45.986 241.291 45.958C241.263 45.9207 241.249 45.8787 241.249 45.832V41.534C241.249 41.1047 241.132 40.764 240.899 40.512C240.666 40.26 240.358 40.134 239.975 40.134C239.62 40.134 239.326 40.2367 239.093 40.442C238.869 40.6473 238.738 40.9273 238.701 41.282V45.832C238.701 45.8787 238.682 45.9207 238.645 45.958C238.617 45.986 238.58 46 238.533 46H237.245C237.198 46 237.156 45.986 237.119 45.958C237.091 45.9207 237.077 45.8787 237.077 45.832V39.014C237.077 38.9673 237.091 38.93 237.119 38.902C237.156 38.8647 237.198 38.846 237.245 38.846H238.533C238.58 38.846 238.617 38.8647 238.645 38.902C238.682 38.93 238.701 38.9673 238.701 39.014V39.476C238.701 39.504 238.71 39.5227 238.729 39.532C238.748 39.5413 238.766 39.532 238.785 39.504C238.99 39.2427 239.242 39.0513 239.541 38.93C239.849 38.7993 240.19 38.734 240.563 38.734C241.02 38.734 241.422 38.8273 241.767 39.014C242.112 39.2007 242.378 39.4713 242.565 39.826C242.593 39.8633 242.626 39.8633 242.663 39.826C242.868 39.4527 243.153 39.1773 243.517 39C243.881 38.8227 244.287 38.734 244.735 38.734ZM254.664 41.618C254.701 41.8513 254.72 42.1127 254.72 42.402L254.706 42.836C254.706 42.948 254.65 43.004 254.538 43.004H250.156C250.109 43.004 250.086 43.0273 250.086 43.074C250.114 43.382 250.156 43.592 250.212 43.704C250.436 44.376 250.982 44.7167 251.85 44.726C252.484 44.726 252.988 44.4647 253.362 43.942C253.399 43.886 253.446 43.858 253.502 43.858C253.539 43.858 253.572 43.872 253.6 43.9L254.468 44.614C254.552 44.6793 254.566 44.754 254.51 44.838C254.22 45.2487 253.833 45.566 253.348 45.79C252.872 46.014 252.34 46.126 251.752 46.126C251.024 46.126 250.403 45.9627 249.89 45.636C249.386 45.3093 249.017 44.852 248.784 44.264C248.569 43.76 248.462 43.06 248.462 42.164C248.462 41.6227 248.518 41.184 248.63 40.848C248.816 40.1947 249.166 39.6813 249.68 39.308C250.202 38.9253 250.828 38.734 251.556 38.734C253.394 38.734 254.43 39.6953 254.664 41.618ZM251.556 40.134C251.21 40.134 250.921 40.2227 250.688 40.4C250.464 40.568 250.305 40.806 250.212 41.114C250.156 41.2727 250.118 41.478 250.1 41.73C250.081 41.7767 250.1 41.8 250.156 41.8H252.998C253.044 41.8 253.068 41.7767 253.068 41.73C253.049 41.4967 253.021 41.3193 252.984 41.198C252.9 40.862 252.732 40.6007 252.48 40.414C252.237 40.2273 251.929 40.134 251.556 40.134ZM259.634 38.734C260.39 38.734 260.992 38.958 261.44 39.406C261.897 39.854 262.126 40.4653 262.126 41.24V45.832C262.126 45.8787 262.107 45.9207 262.07 45.958C262.042 45.986 262.005 46 261.958 46H260.67C260.623 46 260.581 45.986 260.544 45.958C260.516 45.9207 260.502 45.8787 260.502 45.832V41.576C260.502 41.1467 260.381 40.8013 260.138 40.54C259.895 40.2693 259.573 40.134 259.172 40.134C258.771 40.134 258.444 40.2647 258.192 40.526C257.949 40.7873 257.828 41.1327 257.828 41.562V45.832C257.828 45.8787 257.809 45.9207 257.772 45.958C257.744 45.986 257.707 46 257.66 46H256.372C256.325 46 256.283 45.986 256.246 45.958C256.218 45.9207 256.204 45.8787 256.204 45.832V39.014C256.204 38.9673 256.218 38.93 256.246 38.902C256.283 38.8647 256.325 38.846 256.372 38.846H257.66C257.707 38.846 257.744 38.8647 257.772 38.902C257.809 38.93 257.828 38.9673 257.828 39.014V39.462C257.828 39.49 257.837 39.5087 257.856 39.518C257.875 39.5273 257.889 39.518 257.898 39.49C258.281 38.986 258.859 38.734 259.634 38.734ZM267.613 39.994C267.613 40.0407 267.595 40.0827 267.557 40.12C267.529 40.148 267.492 40.162 267.445 40.162H266.017C265.971 40.162 265.947 40.1853 265.947 40.232V43.606C265.947 43.9607 266.022 44.2173 266.171 44.376C266.33 44.5347 266.577 44.614 266.913 44.614H267.333C267.38 44.614 267.417 44.6327 267.445 44.67C267.483 44.698 267.501 44.7353 267.501 44.782V45.832C267.501 45.9347 267.445 45.9953 267.333 46.014L266.605 46.028C265.868 46.028 265.317 45.902 264.953 45.65C264.589 45.398 264.403 44.922 264.393 44.222V40.232C264.393 40.1853 264.37 40.162 264.323 40.162H263.525C263.479 40.162 263.437 40.148 263.399 40.12C263.371 40.0827 263.357 40.0407 263.357 39.994V39.014C263.357 38.9673 263.371 38.93 263.399 38.902C263.437 38.8647 263.479 38.846 263.525 38.846H264.323C264.37 38.846 264.393 38.8227 264.393 38.776V37.138C264.393 37.0913 264.407 37.054 264.435 37.026C264.473 36.9887 264.515 36.97 264.561 36.97H265.779C265.826 36.97 265.863 36.9887 265.891 37.026C265.929 37.054 265.947 37.0913 265.947 37.138V38.776C265.947 38.8227 265.971 38.846 266.017 38.846H267.445C267.492 38.846 267.529 38.8647 267.557 38.902C267.595 38.93 267.613 38.9673 267.613 39.014V39.994Z" fill="#FAFAFA"/>
</g>
<defs>
<filter id="filter0_d_196_2091" x="0" y="0" width="409" height="96" filterUnits="userSpaceOnUse" color-interpolation-filters="sRGB">
<feFlood flood-opacity="0" result="BackgroundImageFix"/>
<feColorMatrix in="SourceAlpha" type="matrix" values="0 0 0 0 0 0 0 0 0 0 0 0 0 0 0 0 0 0 127 0" result="hardAlpha"/>
<feOffset dy="8"/>
<feGaussianBlur stdDeviation="12"/>
<feColorMatrix type="matrix" values="0 0 0 0 0.917647 0 0 0 0 0.486275 0 0 0 0 0.411765 0 0 0 0.3 0"/>
<feBlend mode="normal" in2="BackgroundImageFix" result="effect1_dropShadow_196_2091"/>
<feBlend mode="normal" in="SourceGraphic" in2="effect1_dropShadow_196_2091" result="shape"/>
</filter>
</defs>
</svg>
