<svg width="221" height="52" viewBox="0 0 221 52" fill="none" xmlns="http://www.w3.org/2000/svg">
<path opacity="0.24" d="M0 0H221V44C221 48.4183 217.418 52 213 52H8C3.58172 52 0 48.4183 0 44V0Z" fill="#EA7C69"/>
<path d="M86.9512 32.0075C87.2543 32.0075 87.5 32.2484 87.5 32.5455C87.5 32.8178 87.2935 33.0429 87.0257 33.0785L86.9512 33.0834H81.2258C80.9227 33.0834 80.677 32.8426 80.677 32.5455C80.677 32.2731 80.8835 32.0481 81.1514 32.0124L81.2258 32.0075H86.9512ZM81.3827 19.6806C82.4217 18.6621 84.1069 18.6621 85.1459 19.6806L86.2245 20.7379C87.2635 21.7564 87.2635 23.4083 86.2245 24.4268L78.1172 32.3739C77.6536 32.8283 77.0251 33.0833 76.369 33.0833H73.0488C72.7403 33.0833 72.4925 32.8342 72.5002 32.532L72.5837 29.248C72.6003 28.6273 72.8594 28.0355 73.3072 27.5965L81.3827 19.6806ZM80.755 21.8159L74.0833 28.3573C73.8344 28.6013 73.6901 28.9308 73.6809 29.2755L73.6112 32.0071L76.369 32.0075C76.6935 32.0075 77.0056 31.8955 77.2519 31.6932L77.3411 31.6131L84.0458 25.0409L80.755 21.8159ZM84.3698 20.4414C83.7594 19.8431 82.7691 19.8431 82.1588 20.4414L81.5317 21.0551L84.8217 24.2801L85.4484 23.666C86.0249 23.1009 86.0569 22.2037 85.5445 21.6017L85.4484 21.4987L84.3698 20.4414Z" fill="#EA7C69"/>
<path d="M105.658 23.432C105.658 23.4787 105.639 23.5207 105.602 23.558C105.574 23.586 105.537 23.6 105.49 23.6H100.716C100.669 23.6 100.646 23.6233 100.646 23.67V26.288C100.646 26.3347 100.669 26.358 100.716 26.358H103.922C103.969 26.358 104.006 26.3767 104.034 26.414C104.071 26.442 104.09 26.4793 104.09 26.526V27.59C104.09 27.6367 104.071 27.6787 104.034 27.716C104.006 27.744 103.969 27.758 103.922 27.758H100.716C100.669 27.758 100.646 27.7813 100.646 27.828V30.53C100.646 30.5767 100.669 30.6 100.716 30.6H105.49C105.537 30.6 105.574 30.6187 105.602 30.656C105.639 30.684 105.658 30.7213 105.658 30.768V31.832C105.658 31.8787 105.639 31.9207 105.602 31.958C105.574 31.986 105.537 32 105.49 32H99.19C99.1433 32 99.1013 31.986 99.064 31.958C99.036 31.9207 99.022 31.8787 99.022 31.832V22.368C99.022 22.3213 99.036 22.284 99.064 22.256C99.1013 22.2187 99.1433 22.2 99.19 22.2H105.49C105.537 22.2 105.574 22.2187 105.602 22.256C105.639 22.284 105.658 22.3213 105.658 22.368V23.432ZM111.591 22.368C111.591 22.3213 111.605 22.284 111.633 22.256C111.67 22.2187 111.712 22.2 111.759 22.2H113.047C113.094 22.2 113.131 22.2187 113.159 22.256C113.196 22.284 113.215 22.3213 113.215 22.368V31.832C113.215 31.8787 113.196 31.9207 113.159 31.958C113.131 31.986 113.094 32 113.047 32H111.759C111.712 32 111.67 31.986 111.633 31.958C111.605 31.9207 111.591 31.8787 111.591 31.832V31.412C111.591 31.384 111.582 31.3653 111.563 31.356C111.544 31.3467 111.526 31.356 111.507 31.384C111.096 31.8693 110.56 32.112 109.897 32.112C109.234 32.112 108.674 31.9393 108.217 31.594C107.76 31.2487 107.428 30.768 107.223 30.152C107.055 29.6293 106.971 29.046 106.971 28.402C106.971 27.7393 107.05 27.17 107.209 26.694C107.414 26.078 107.746 25.5973 108.203 25.252C108.66 24.9067 109.234 24.734 109.925 24.734C110.569 24.734 111.096 24.9673 111.507 25.434C111.526 25.4527 111.544 25.462 111.563 25.462C111.582 25.4527 111.591 25.434 111.591 25.406V22.368ZM111.255 30.04C111.47 29.6573 111.577 29.116 111.577 28.416C111.577 27.688 111.46 27.1327 111.227 26.75C110.975 26.3393 110.62 26.134 110.163 26.134C109.687 26.134 109.314 26.33 109.043 26.722C108.763 27.1327 108.623 27.702 108.623 28.43C108.623 29.0833 108.735 29.62 108.959 30.04C109.22 30.488 109.617 30.712 110.149 30.712C110.625 30.712 110.994 30.488 111.255 30.04ZM115.897 23.866C115.608 23.866 115.37 23.7727 115.183 23.586C114.997 23.3993 114.903 23.1613 114.903 22.872C114.903 22.5827 114.997 22.3447 115.183 22.158C115.37 21.9713 115.608 21.878 115.897 21.878C116.187 21.878 116.425 21.9713 116.611 22.158C116.798 22.3447 116.891 22.5827 116.891 22.872C116.891 23.1613 116.798 23.3993 116.611 23.586C116.425 23.7727 116.187 23.866 115.897 23.866ZM115.225 32C115.179 32 115.137 31.986 115.099 31.958C115.071 31.9207 115.057 31.8787 115.057 31.832V25C115.057 24.9533 115.071 24.916 115.099 24.888C115.137 24.8507 115.179 24.832 115.225 24.832H116.513C116.56 24.832 116.597 24.8507 116.625 24.888C116.663 24.916 116.681 24.9533 116.681 25V31.832C116.681 31.8787 116.663 31.9207 116.625 31.958C116.597 31.986 116.56 32 116.513 32H115.225ZM122.336 25.994C122.336 26.0407 122.317 26.0827 122.28 26.12C122.252 26.148 122.214 26.162 122.168 26.162H120.74C120.693 26.162 120.67 26.1853 120.67 26.232V29.606C120.67 29.9607 120.744 30.2173 120.894 30.376C121.052 30.5347 121.3 30.614 121.636 30.614H122.056C122.102 30.614 122.14 30.6327 122.168 30.67C122.205 30.698 122.224 30.7353 122.224 30.782V31.832C122.224 31.9347 122.168 31.9953 122.056 32.014L121.328 32.028C120.59 32.028 120.04 31.902 119.676 31.65C119.312 31.398 119.125 30.922 119.116 30.222V26.232C119.116 26.1853 119.092 26.162 119.046 26.162H118.248C118.201 26.162 118.159 26.148 118.122 26.12C118.094 26.0827 118.08 26.0407 118.08 25.994V25.014C118.08 24.9673 118.094 24.93 118.122 24.902C118.159 24.8647 118.201 24.846 118.248 24.846H119.046C119.092 24.846 119.116 24.8227 119.116 24.776V23.138C119.116 23.0913 119.13 23.054 119.158 23.026C119.195 22.9887 119.237 22.97 119.284 22.97H120.502C120.548 22.97 120.586 22.9887 120.614 23.026C120.651 23.054 120.67 23.0913 120.67 23.138V24.776C120.67 24.8227 120.693 24.846 120.74 24.846H122.168C122.214 24.846 122.252 24.8647 122.28 24.902C122.317 24.93 122.336 24.9673 122.336 25.014V25.994ZM131.019 22.368C131.019 22.3213 131.033 22.284 131.061 22.256C131.098 22.2187 131.14 22.2 131.187 22.2H132.475C132.522 22.2 132.559 22.2187 132.587 22.256C132.624 22.284 132.643 22.3213 132.643 22.368V31.832C132.643 31.8787 132.624 31.9207 132.587 31.958C132.559 31.986 132.522 32 132.475 32H131.187C131.14 32 131.098 31.986 131.061 31.958C131.033 31.9207 131.019 31.8787 131.019 31.832V31.412C131.019 31.384 131.01 31.3653 130.991 31.356C130.972 31.3467 130.954 31.356 130.935 31.384C130.524 31.8693 129.988 32.112 129.325 32.112C128.662 32.112 128.102 31.9393 127.645 31.594C127.188 31.2487 126.856 30.768 126.651 30.152C126.483 29.6293 126.399 29.046 126.399 28.402C126.399 27.7393 126.478 27.17 126.637 26.694C126.842 26.078 127.174 25.5973 127.631 25.252C128.088 24.9067 128.662 24.734 129.353 24.734C129.997 24.734 130.524 24.9673 130.935 25.434C130.954 25.4527 130.972 25.462 130.991 25.462C131.01 25.4527 131.019 25.434 131.019 25.406V22.368ZM130.683 30.04C130.898 29.6573 131.005 29.116 131.005 28.416C131.005 27.688 130.888 27.1327 130.655 26.75C130.403 26.3393 130.048 26.134 129.591 26.134C129.115 26.134 128.742 26.33 128.471 26.722C128.191 27.1327 128.051 27.702 128.051 28.43C128.051 29.0833 128.163 29.62 128.387 30.04C128.648 30.488 129.045 30.712 129.577 30.712C130.053 30.712 130.422 30.488 130.683 30.04ZM135.325 23.866C135.036 23.866 134.798 23.7727 134.611 23.586C134.425 23.3993 134.331 23.1613 134.331 22.872C134.331 22.5827 134.425 22.3447 134.611 22.158C134.798 21.9713 135.036 21.878 135.325 21.878C135.615 21.878 135.853 21.9713 136.039 22.158C136.226 22.3447 136.319 22.5827 136.319 22.872C136.319 23.1613 136.226 23.3993 136.039 23.586C135.853 23.7727 135.615 23.866 135.325 23.866ZM134.653 32C134.607 32 134.565 31.986 134.527 31.958C134.499 31.9207 134.485 31.8787 134.485 31.832V25C134.485 24.9533 134.499 24.916 134.527 24.888C134.565 24.8507 134.607 24.832 134.653 24.832H135.941C135.988 24.832 136.025 24.8507 136.053 24.888C136.091 24.916 136.109 24.9533 136.109 25V31.832C136.109 31.8787 136.091 31.9207 136.053 31.958C136.025 31.986 135.988 32 135.941 32H134.653ZM140.63 32.084C140.042 32.084 139.524 32 139.076 31.832C138.637 31.6547 138.296 31.4167 138.054 31.118C137.811 30.81 137.69 30.4693 137.69 30.096V29.97C137.69 29.9233 137.704 29.886 137.732 29.858C137.769 29.8207 137.811 29.802 137.858 29.802H139.09C139.136 29.802 139.174 29.8207 139.202 29.858C139.239 29.886 139.258 29.9233 139.258 29.97V29.998C139.258 30.2313 139.384 30.4367 139.636 30.614C139.897 30.782 140.224 30.866 140.616 30.866C140.989 30.866 141.292 30.7913 141.526 30.642C141.759 30.4833 141.876 30.2873 141.876 30.054C141.876 29.8393 141.778 29.6807 141.582 29.578C141.395 29.466 141.087 29.3493 140.658 29.228L140.126 29.06C139.65 28.92 139.248 28.7707 138.922 28.612C138.595 28.4533 138.32 28.2387 138.096 27.968C137.872 27.688 137.76 27.3333 137.76 26.904C137.76 26.2507 138.016 25.7327 138.53 25.35C139.043 24.958 139.72 24.762 140.56 24.762C141.129 24.762 141.628 24.8553 142.058 25.042C142.487 25.2193 142.818 25.4713 143.052 25.798C143.285 26.1153 143.402 26.4793 143.402 26.89C143.402 26.9367 143.383 26.9787 143.346 27.016C143.318 27.044 143.28 27.058 143.234 27.058H142.044C141.997 27.058 141.955 27.044 141.918 27.016C141.89 26.9787 141.876 26.9367 141.876 26.89C141.876 26.6473 141.754 26.4467 141.512 26.288C141.278 26.12 140.956 26.036 140.546 26.036C140.182 26.036 139.883 26.106 139.65 26.246C139.426 26.3767 139.314 26.5633 139.314 26.806C139.314 27.03 139.421 27.2027 139.636 27.324C139.86 27.436 140.228 27.562 140.742 27.702L141.05 27.786C141.544 27.9353 141.96 28.0893 142.296 28.248C142.632 28.3973 142.916 28.612 143.15 28.892C143.383 29.1627 143.5 29.5173 143.5 29.956C143.5 30.6187 143.238 31.1413 142.716 31.524C142.193 31.8973 141.498 32.084 140.63 32.084ZM148.304 24.734C149.06 24.734 149.662 24.958 150.11 25.406C150.567 25.854 150.796 26.4653 150.796 27.24V31.832C150.796 31.8787 150.777 31.9207 150.74 31.958C150.712 31.986 150.675 32 150.628 32H149.34C149.293 32 149.251 31.986 149.214 31.958C149.186 31.9207 149.172 31.8787 149.172 31.832V27.576C149.172 27.1467 149.051 26.8013 148.808 26.54C148.565 26.2693 148.243 26.134 147.842 26.134C147.441 26.134 147.114 26.2647 146.862 26.526C146.619 26.7873 146.498 27.1327 146.498 27.562V31.832C146.498 31.8787 146.479 31.9207 146.442 31.958C146.414 31.986 146.377 32 146.33 32H145.042C144.995 32 144.953 31.986 144.916 31.958C144.888 31.9207 144.874 31.8787 144.874 31.832V22.368C144.874 22.3213 144.888 22.284 144.916 22.256C144.953 22.2187 144.995 22.2 145.042 22.2H146.33C146.377 22.2 146.414 22.2187 146.442 22.256C146.479 22.284 146.498 22.3213 146.498 22.368V25.462C146.498 25.49 146.507 25.5087 146.526 25.518C146.545 25.5273 146.559 25.518 146.568 25.49C146.951 24.986 147.529 24.734 148.304 24.734Z" fill="#EA7C69"/>
</svg>
