<svg width="105" height="113" viewBox="0 0 110 113" fill="none" xmlns="http://www.w3.org/2000/svg" style="padding: 5px; transform: rotate(90deg); position: static; top: -20; left: 0;">

<path  d="M12 24C12 17.3726 17.3726 12 24 12H104V92H24C17.3726 92 12 86.6274 12 80V24Z" fill="#252836"/>
<path  d="M100.5 8C104.5 4 104 0 104 0V12H92C92 12 96.5 12 100.5 8Z" fill="#252836"/>
<path d="M100.01 95.51C96.0098 91.51 92.0098 92.01 92.0098 92.01H104.01V104.01C104.01 104.01 104.01 99.51 100.01 95.51Z" fill="#252836"/>
<g filter="url(#filter0_d_175_868)" transform="rotate(270, 52.5, 56.5)">
<rect  x="30" y="35" width="56" height="56" rx="8" fill="#EA7C69" />
<path transform="translate(7, 10)" d="M49.7305 43.7884C51.0005 42.7794 52.7805 42.7394 54.0895 43.6684L54.2505 43.7884L60.3395 48.6594C61.0095 49.1784 61.4205 49.9494 61.4905 50.7884L61.5005 50.9894V59.0984C61.5005 61.1884 59.8495 62.8884 57.7805 62.9984H55.7905C54.8395 62.9794 54.0705 62.2394 54.0005 61.3094L53.9905 61.1684V58.3094C53.9905 57.9984 53.7595 57.7394 53.4505 57.6884L53.3605 57.6784H50.6895C50.3705 57.6884 50.1105 57.9184 50.0705 58.2184L50.0605 58.3094V61.1594C50.0605 61.2184 50.0495 61.2884 50.0405 61.3384L50.0305 61.3594L50.0195 61.4284C49.9005 62.2794 49.2005 62.9284 48.3305 62.9894L48.2005 62.9984H46.4105C44.3205 62.9984 42.6105 61.3594 42.5005 59.2984V50.9894C42.5095 50.1384 42.8805 49.3484 43.5005 48.7984L49.7305 43.7884ZM53.3805 44.8784C52.6205 44.2684 51.5405 44.2394 50.7405 44.7684L50.5895 44.8784L44.5095 49.7794C44.1605 50.0384 43.9505 50.4284 43.9005 50.8384L43.8895 50.9984V59.0984C43.8895 60.4284 44.9295 61.5184 46.2505 61.5984H48.2005C48.4205 61.5984 48.6105 61.4494 48.6395 61.2394L48.6605 61.0594L48.6705 61.0084V58.3094C48.6705 57.2394 49.4905 56.3694 50.5405 56.2884H53.3605C54.4295 56.2884 55.2995 57.1094 55.3805 58.1594V61.1684C55.3805 61.3784 55.5305 61.5594 55.7305 61.5984H57.5895C58.9295 61.5984 60.0195 60.5694 60.0995 59.2584L60.1105 59.0984V50.9984C60.0995 50.5694 59.9205 50.1684 59.6105 49.8694L59.4805 49.7584L53.3805 44.8784Z" fill="white"/>
</g>
<defs>

<filter id="filter0_d_175_868" x="0" y="9" width="140" height="140" filterUnits="userSpaceOnUse" color-interpolation-filters="sRGB">
<feFlood flood-opacity="0" result="BackgroundImageFix"/>
<feColorMatrix in="SourceAlpha" type="matrix" values="0 0 0 0 0 0 0 0 0 0 0 0 0 0 0 0 0 0 127 0" result="hardAlpha"/>
<feOffset dy="8"/>
<feGaussianBlur stdDeviation="12"/>
<feColorMatrix type="matrix" values="0 0 0 0 0.917647 0 0 0 0 0.486275 0 0 0 0 0.411765 0 0 0 0.32 0"/>
<feBlend mode="normal" in2="BackgroundImageFix" result="effect1_dropShadow_175_868"/>
<feBlend mode="normal" in="SourceGraphic" in2="effect1_dropShadow_175_868" result="shape"/>
</filter>
</defs>
</svg>
