<svg width="91" height="26" viewBox="0 0 91 26" fill="none" xmlns="http://www.w3.org/2000/svg">
<rect width="91" height="26" rx="13" fill="#FFB572" fill-opacity="0.2"/>
<path d="M25.7379 9.186C26.3072 9.186 26.8066 9.30733 27.2359 9.55C27.6746 9.78333 28.0106 10.1147 28.2439 10.544C28.4866 10.9733 28.6079 11.468 28.6079 12.028C28.6079 12.588 28.4866 13.078 28.2439 13.498C28.0012 13.918 27.6559 14.2447 27.2079 14.478C26.7692 14.7113 26.2606 14.828 25.6819 14.828H23.2179C23.1806 14.828 23.1619 14.8467 23.1619 14.884V18.86C23.1619 18.9533 23.1152 19 23.0219 19H21.9579C21.8646 19 21.8179 18.9533 21.8179 18.86V9.326C21.8179 9.23267 21.8646 9.186 21.9579 9.186H25.7379ZM25.5559 13.736C26.0692 13.736 26.4799 13.582 26.7879 13.274C27.1052 12.966 27.2639 12.56 27.2639 12.056C27.2639 11.5427 27.1052 11.132 26.7879 10.824C26.4799 10.5067 26.0692 10.348 25.5559 10.348H23.2179C23.1806 10.348 23.1619 10.3667 23.1619 10.404V13.68C23.1619 13.7173 23.1806 13.736 23.2179 13.736H25.5559ZM35.4863 14.548C35.5236 14.9307 35.5376 15.36 35.5283 15.836C35.5283 15.9293 35.4816 15.976 35.3883 15.976H30.9223C30.8849 15.976 30.8663 15.9947 30.8663 16.032C30.8663 16.3493 30.8943 16.592 30.9503 16.76C31.0529 17.1333 31.2583 17.4273 31.5663 17.642C31.8836 17.8473 32.2803 17.95 32.7563 17.95C33.4469 17.95 33.9789 17.6653 34.3523 17.096C34.3989 17.0027 34.4596 16.9887 34.5343 17.054L35.3323 17.586C35.3976 17.642 35.4116 17.7027 35.3743 17.768C35.1129 18.188 34.7396 18.5193 34.2543 18.762C33.7783 19.0047 33.2369 19.126 32.6303 19.126C31.9489 19.126 31.3749 18.9767 30.9083 18.678C30.4416 18.3793 30.0916 17.9547 29.8583 17.404C29.6343 16.8533 29.5223 16.186 29.5223 15.402C29.5223 14.7207 29.5736 14.2027 29.6763 13.848C29.8443 13.204 30.1803 12.6953 30.6843 12.322C31.1883 11.9487 31.7996 11.762 32.5183 11.762C33.4609 11.762 34.1656 12 34.6323 12.476C35.0989 12.9427 35.3836 13.6333 35.4863 14.548ZM32.5183 12.924C32.1169 12.924 31.7856 13.0267 31.5243 13.232C31.2629 13.428 31.0856 13.694 30.9923 14.03C30.9269 14.2353 30.8849 14.4967 30.8663 14.814C30.8663 14.8513 30.8849 14.87 30.9223 14.87H34.1283C34.1656 14.87 34.1843 14.8513 34.1843 14.814C34.1656 14.506 34.1376 14.2773 34.1003 14.128C34.0069 13.764 33.8203 13.4747 33.5403 13.26C33.2696 13.036 32.9289 12.924 32.5183 12.924ZM40.4021 11.776C41.1675 11.776 41.7741 12 42.2221 12.448C42.6701 12.8867 42.8941 13.484 42.8941 14.24V18.86C42.8941 18.9533 42.8475 19 42.7541 19H41.6901C41.5968 19 41.5501 18.9533 41.5501 18.86V14.506C41.5501 14.0393 41.4148 13.6613 41.1441 13.372C40.8735 13.0827 40.5141 12.938 40.0661 12.938C39.6275 12.938 39.2681 13.0827 38.9881 13.372C38.7081 13.6613 38.5681 14.0347 38.5681 14.492V18.86C38.5681 18.9533 38.5215 19 38.4281 19H37.3641C37.2708 19 37.2241 18.9533 37.2241 18.86V12.014C37.2241 11.9207 37.2708 11.874 37.3641 11.874H38.4281C38.5215 11.874 38.5681 11.9207 38.5681 12.014V12.518C38.5681 12.5367 38.5728 12.5507 38.5821 12.56C38.6008 12.5693 38.6148 12.5647 38.6241 12.546C39.0255 12.0327 39.6181 11.776 40.4021 11.776ZM49.154 9.34C49.154 9.24667 49.2007 9.2 49.294 9.2H50.358C50.4513 9.2 50.498 9.24667 50.498 9.34V18.86C50.498 18.9533 50.4513 19 50.358 19H49.294C49.2007 19 49.154 18.9533 49.154 18.86V18.398C49.154 18.3793 49.1447 18.3653 49.126 18.356C49.1167 18.3467 49.1027 18.3513 49.084 18.37C48.8787 18.6033 48.636 18.7853 48.356 18.916C48.076 19.0467 47.7727 19.112 47.446 19.112C46.774 19.112 46.214 18.9487 45.766 18.622C45.3273 18.286 45.0053 17.8147 44.8 17.208C44.6227 16.7133 44.534 16.116 44.534 15.416C44.534 14.7627 44.6087 14.198 44.758 13.722C44.954 13.106 45.276 12.6253 45.724 12.28C46.172 11.9347 46.746 11.762 47.446 11.762C47.7633 11.762 48.062 11.8273 48.342 11.958C48.6313 12.0793 48.8787 12.2567 49.084 12.49C49.1027 12.5087 49.1167 12.5133 49.126 12.504C49.1447 12.4947 49.154 12.4807 49.154 12.462V9.34ZM48.804 17.194C49.0187 16.802 49.126 16.214 49.126 15.43C49.126 14.646 49.0093 14.0487 48.776 13.638C48.5053 13.162 48.1087 12.924 47.586 12.924C47.026 12.924 46.6107 13.148 46.34 13.596C46.0413 14.0627 45.892 14.6787 45.892 15.444C45.892 16.1627 46.0087 16.7413 46.242 17.18C46.5127 17.6933 46.956 17.95 47.572 17.95C48.1133 17.95 48.524 17.698 48.804 17.194ZM53.2803 10.754C53.0189 10.754 52.8043 10.67 52.6363 10.502C52.4683 10.334 52.3843 10.1193 52.3843 9.858C52.3843 9.59667 52.4683 9.382 52.6363 9.214C52.8043 9.046 53.0189 8.962 53.2803 8.962C53.5416 8.962 53.7563 9.046 53.9243 9.214C54.0923 9.382 54.1763 9.59667 54.1763 9.858C54.1763 10.1193 54.0923 10.334 53.9243 10.502C53.7563 10.67 53.5416 10.754 53.2803 10.754ZM52.7203 18.986C52.6269 18.986 52.5803 18.9393 52.5803 18.846V12.014C52.5803 11.9207 52.6269 11.874 52.7203 11.874H53.7843C53.8776 11.874 53.9243 11.9207 53.9243 12.014V18.846C53.9243 18.9393 53.8776 18.986 53.7843 18.986H52.7203ZM59.2146 11.776C59.98 11.776 60.5866 12 61.0346 12.448C61.4826 12.8867 61.7066 13.484 61.7066 14.24V18.86C61.7066 18.9533 61.66 19 61.5666 19H60.5026C60.4093 19 60.3626 18.9533 60.3626 18.86V14.506C60.3626 14.0393 60.2273 13.6613 59.9566 13.372C59.686 13.0827 59.3266 12.938 58.8786 12.938C58.44 12.938 58.0806 13.0827 57.8006 13.372C57.5206 13.6613 57.3806 14.0347 57.3806 14.492V18.86C57.3806 18.9533 57.334 19 57.2406 19H56.1766C56.0833 19 56.0366 18.9533 56.0366 18.86V12.014C56.0366 11.9207 56.0833 11.874 56.1766 11.874H57.2406C57.334 11.874 57.3806 11.9207 57.3806 12.014V12.518C57.3806 12.5367 57.3853 12.5507 57.3946 12.56C57.4133 12.5693 57.4273 12.5647 57.4366 12.546C57.838 12.0327 58.4306 11.776 59.2146 11.776ZM68.0065 12.014C68.0065 11.9207 68.0532 11.874 68.1465 11.874H69.2105C69.3039 11.874 69.3505 11.9207 69.3505 12.014V18.636C69.3505 19.7653 69.0285 20.5727 68.3845 21.058C67.7499 21.5433 66.8959 21.786 65.8225 21.786C65.6732 21.786 65.4399 21.7767 65.1225 21.758C65.0292 21.7487 64.9825 21.6973 64.9825 21.604L65.0245 20.638C65.0245 20.6007 65.0385 20.568 65.0665 20.54C65.0945 20.512 65.1319 20.5027 65.1785 20.512C65.3092 20.5213 65.5005 20.526 65.7525 20.526C66.5459 20.526 67.1199 20.3767 67.4745 20.078C67.8292 19.7887 68.0065 19.294 68.0065 18.594V18.342C68.0065 18.3233 67.9972 18.3093 67.9785 18.3C67.9692 18.2907 67.9552 18.2953 67.9365 18.314C67.5445 18.7713 66.9705 19 66.2145 19C65.6079 19 65.0572 18.8413 64.5625 18.524C64.0772 18.2067 63.7412 17.74 63.5545 17.124C63.4332 16.7133 63.3725 16.144 63.3725 15.416C63.3725 14.6413 63.4425 14.044 63.5825 13.624C63.7599 13.064 64.0725 12.616 64.5205 12.28C64.9779 11.9347 65.5145 11.762 66.1305 11.762C66.8959 11.762 67.4979 11.9953 67.9365 12.462C67.9552 12.4807 67.9692 12.49 67.9785 12.49C67.9972 12.4807 68.0065 12.4667 68.0065 12.448V12.014ZM67.9225 16.718C67.9505 16.5687 67.9692 16.41 67.9785 16.242C67.9972 16.074 68.0065 15.794 68.0065 15.402C68.0065 15.01 67.9972 14.7347 67.9785 14.576C67.9692 14.408 67.9459 14.2493 67.9085 14.1C67.8339 13.7547 67.6659 13.4747 67.4045 13.26C67.1432 13.036 66.8165 12.924 66.4245 12.924C66.0325 12.924 65.7059 13.036 65.4445 13.26C65.1832 13.4747 64.9965 13.7547 64.8845 14.1C64.7819 14.38 64.7305 14.814 64.7305 15.402C64.7305 16.046 64.7772 16.4847 64.8705 16.718C64.9639 17.0633 65.1459 17.348 65.4165 17.572C65.6965 17.7867 66.0325 17.894 66.4245 17.894C66.8352 17.894 67.1665 17.7867 67.4185 17.572C67.6799 17.348 67.8479 17.0633 67.9225 16.718Z" fill="#FFB572"/>
</svg>
