<svg width="91" height="26" viewBox="0 0 91 26" fill="none" xmlns="http://www.w3.org/2000/svg">
<rect width="91" height="26" rx="13" fill="#9290FE" fill-opacity="0.2"/>
<path d="M20.5426 9.186C21.1119 9.186 21.6113 9.30733 22.0406 9.55C22.4793 9.78333 22.8153 10.1147 23.0486 10.544C23.2913 10.9733 23.4126 11.468 23.4126 12.028C23.4126 12.588 23.2913 13.078 23.0486 13.498C22.8059 13.918 22.4606 14.2447 22.0126 14.478C21.5739 14.7113 21.0653 14.828 20.4866 14.828H18.0226C17.9853 14.828 17.9666 14.8467 17.9666 14.884V18.86C17.9666 18.9533 17.9199 19 17.8266 19H16.7626C16.6693 19 16.6226 18.9533 16.6226 18.86V9.326C16.6226 9.23267 16.6693 9.186 16.7626 9.186H20.5426ZM20.3606 13.736C20.8739 13.736 21.2846 13.582 21.5926 13.274C21.9099 12.966 22.0686 12.56 22.0686 12.056C22.0686 11.5427 21.9099 11.132 21.5926 10.824C21.2846 10.5067 20.8739 10.348 20.3606 10.348H18.0226C17.9853 10.348 17.9666 10.3667 17.9666 10.404V13.68C17.9666 13.7173 17.9853 13.736 18.0226 13.736H20.3606ZM27.9594 11.804C28.2581 11.804 28.5288 11.8647 28.7714 11.986C28.8368 12.014 28.8601 12.07 28.8414 12.154L28.6174 13.204C28.6081 13.288 28.5521 13.316 28.4494 13.288C28.2908 13.2227 28.1041 13.19 27.8894 13.19L27.6934 13.204C27.2548 13.2227 26.8908 13.3767 26.6014 13.666C26.3214 13.946 26.1814 14.3147 26.1814 14.772V18.86C26.1814 18.9533 26.1348 19 26.0414 19H24.9774C24.8841 19 24.8374 18.9533 24.8374 18.86V12.014C24.8374 11.9207 24.8841 11.874 24.9774 11.874H26.0414C26.1348 11.874 26.1814 11.9207 26.1814 12.014V12.756C26.1814 12.784 26.1861 12.8027 26.1954 12.812C26.2141 12.812 26.2281 12.8027 26.2374 12.784C26.6574 12.1307 27.2314 11.804 27.9594 11.804ZM35.6914 14.548C35.7287 14.9307 35.7427 15.36 35.7334 15.836C35.7334 15.9293 35.6867 15.976 35.5934 15.976H31.1274C31.09 15.976 31.0714 15.9947 31.0714 16.032C31.0714 16.3493 31.0994 16.592 31.1554 16.76C31.258 17.1333 31.4634 17.4273 31.7714 17.642C32.0887 17.8473 32.4854 17.95 32.9614 17.95C33.652 17.95 34.184 17.6653 34.5574 17.096C34.604 17.0027 34.6647 16.9887 34.7394 17.054L35.5374 17.586C35.6027 17.642 35.6167 17.7027 35.5794 17.768C35.318 18.188 34.9447 18.5193 34.4594 18.762C33.9834 19.0047 33.442 19.126 32.8354 19.126C32.154 19.126 31.58 18.9767 31.1134 18.678C30.6467 18.3793 30.2967 17.9547 30.0634 17.404C29.8394 16.8533 29.7274 16.186 29.7274 15.402C29.7274 14.7207 29.7787 14.2027 29.8814 13.848C30.0494 13.204 30.3854 12.6953 30.8894 12.322C31.3934 11.9487 32.0047 11.762 32.7234 11.762C33.666 11.762 34.3707 12 34.8374 12.476C35.304 12.9427 35.5887 13.6333 35.6914 14.548ZM32.7234 12.924C32.322 12.924 31.9907 13.0267 31.7294 13.232C31.468 13.428 31.2907 13.694 31.1974 14.03C31.132 14.2353 31.09 14.4967 31.0714 14.814C31.0714 14.8513 31.09 14.87 31.1274 14.87H34.3334C34.3707 14.87 34.3894 14.8513 34.3894 14.814C34.3707 14.506 34.3427 14.2773 34.3054 14.128C34.212 13.764 34.0254 13.4747 33.7454 13.26C33.4747 13.036 33.134 12.924 32.7234 12.924ZM43.2112 13.666C43.3886 14.17 43.4772 14.7673 43.4772 15.458C43.4772 16.1113 43.4026 16.676 43.2532 17.152C43.0572 17.7773 42.7352 18.2627 42.2872 18.608C41.8392 18.944 41.2652 19.112 40.5652 19.112C40.2479 19.112 39.9446 19.0513 39.6552 18.93C39.3752 18.7993 39.1326 18.6173 38.9272 18.384C38.9086 18.3653 38.8899 18.3607 38.8712 18.37C38.8619 18.3793 38.8572 18.3933 38.8572 18.412V21.534C38.8572 21.6273 38.8106 21.674 38.7172 21.674H37.6532C37.5599 21.674 37.5132 21.6273 37.5132 21.534V12.014C37.5132 11.9207 37.5599 11.874 37.6532 11.874H38.7172C38.8106 11.874 38.8572 11.9207 38.8572 12.014V12.476C38.8572 12.4947 38.8619 12.5087 38.8712 12.518C38.8899 12.5273 38.9086 12.5227 38.9272 12.504C39.1326 12.2707 39.3752 12.0887 39.6552 11.958C39.9352 11.8273 40.2386 11.762 40.5652 11.762C41.2372 11.762 41.7926 11.93 42.2312 12.266C42.6792 12.5927 43.0059 13.0593 43.2112 13.666ZM41.6712 17.278C41.9699 16.83 42.1192 16.214 42.1192 15.43C42.1192 14.7113 42.0026 14.1327 41.7692 13.694C41.4986 13.1807 41.0552 12.924 40.4392 12.924C39.8979 12.924 39.4872 13.176 39.2072 13.68C38.9832 14.0813 38.8712 14.6693 38.8712 15.444C38.8712 16.228 38.9926 16.8253 39.2352 17.236C39.5059 17.712 39.9026 17.95 40.4252 17.95C40.9852 17.95 41.4006 17.726 41.6712 17.278ZM47.8399 11.762C48.4092 11.762 48.9039 11.8647 49.3239 12.07C49.7532 12.266 50.0799 12.546 50.3039 12.91C50.5372 13.2647 50.6539 13.6707 50.6539 14.128V18.86C50.6539 18.9533 50.6072 19 50.5139 19H49.4499C49.3565 19 49.3099 18.9533 49.3099 18.86V18.356C49.3099 18.3093 49.2865 18.3 49.2399 18.328C48.9972 18.58 48.6985 18.776 48.3439 18.916C47.9985 19.0467 47.6112 19.112 47.1819 19.112C46.4912 19.112 45.9172 18.9393 45.4599 18.594C45.0119 18.2393 44.7879 17.7073 44.7879 16.998C44.7879 16.27 45.0399 15.7007 45.5439 15.29C46.0572 14.87 46.7712 14.66 47.6859 14.66H49.2539C49.2912 14.66 49.3099 14.6413 49.3099 14.604V14.226C49.3099 13.8153 49.1885 13.498 48.9459 13.274C48.7125 13.0407 48.3532 12.924 47.8679 12.924C47.4759 12.924 47.1539 13.0033 46.9019 13.162C46.6592 13.3113 46.5099 13.5167 46.4539 13.778C46.4259 13.8713 46.3699 13.9133 46.2859 13.904L45.1519 13.75C45.0585 13.7313 45.0165 13.694 45.0259 13.638C45.1005 13.0873 45.3945 12.6393 45.9079 12.294C46.4212 11.9393 47.0652 11.762 47.8399 11.762ZM47.4759 17.978C47.9705 17.978 48.3999 17.8473 48.7639 17.586C49.1279 17.3247 49.3099 16.9933 49.3099 16.592V15.766C49.3099 15.7287 49.2912 15.71 49.2539 15.71H47.9379C47.3872 15.71 46.9485 15.8173 46.6219 16.032C46.2952 16.2467 46.1319 16.5453 46.1319 16.928C46.1319 17.2733 46.2532 17.5347 46.4959 17.712C46.7479 17.8893 47.0745 17.978 47.4759 17.978ZM55.5903 11.804C55.8889 11.804 56.1596 11.8647 56.4023 11.986C56.4676 12.014 56.4909 12.07 56.4723 12.154L56.2483 13.204C56.2389 13.288 56.1829 13.316 56.0803 13.288C55.9216 13.2227 55.7349 13.19 55.5203 13.19L55.3243 13.204C54.8856 13.2227 54.5216 13.3767 54.2323 13.666C53.9523 13.946 53.8123 14.3147 53.8123 14.772V18.86C53.8123 18.9533 53.7656 19 53.6723 19H52.6083C52.5149 19 52.4683 18.9533 52.4683 18.86V12.014C52.4683 11.9207 52.5149 11.874 52.6083 11.874H53.6723C53.7656 11.874 53.8123 11.9207 53.8123 12.014V12.756C53.8123 12.784 53.8169 12.8027 53.8263 12.812C53.8449 12.812 53.8589 12.8027 53.8683 12.784C54.2883 12.1307 54.8623 11.804 55.5903 11.804ZM58.4756 10.754C58.2143 10.754 57.9996 10.67 57.8316 10.502C57.6636 10.334 57.5796 10.1193 57.5796 9.858C57.5796 9.59667 57.6636 9.382 57.8316 9.214C57.9996 9.046 58.2143 8.962 58.4756 8.962C58.7369 8.962 58.9516 9.046 59.1196 9.214C59.2876 9.382 59.3716 9.59667 59.3716 9.858C59.3716 10.1193 59.2876 10.334 59.1196 10.502C58.9516 10.67 58.7369 10.754 58.4756 10.754ZM57.9156 18.986C57.8223 18.986 57.7756 18.9393 57.7756 18.846V12.014C57.7756 11.9207 57.8223 11.874 57.9156 11.874H58.9796C59.0729 11.874 59.1196 11.9207 59.1196 12.014V18.846C59.1196 18.9393 59.0729 18.986 58.9796 18.986H57.9156ZM64.41 11.776C65.1753 11.776 65.782 12 66.23 12.448C66.678 12.8867 66.902 13.484 66.902 14.24V18.86C66.902 18.9533 66.8553 19 66.762 19H65.698C65.6046 19 65.558 18.9533 65.558 18.86V14.506C65.558 14.0393 65.4226 13.6613 65.152 13.372C64.8813 13.0827 64.522 12.938 64.074 12.938C63.6353 12.938 63.276 13.0827 62.996 13.372C62.716 13.6613 62.576 14.0347 62.576 14.492V18.86C62.576 18.9533 62.5293 19 62.436 19H61.372C61.2786 19 61.232 18.9533 61.232 18.86V12.014C61.232 11.9207 61.2786 11.874 61.372 11.874H62.436C62.5293 11.874 62.576 11.9207 62.576 12.014V12.518C62.576 12.5367 62.5806 12.5507 62.59 12.56C62.6086 12.5693 62.6226 12.5647 62.632 12.546C63.0333 12.0327 63.626 11.776 64.41 11.776ZM73.2018 12.014C73.2018 11.9207 73.2485 11.874 73.3418 11.874H74.4058C74.4992 11.874 74.5458 11.9207 74.5458 12.014V18.636C74.5458 19.7653 74.2238 20.5727 73.5798 21.058C72.9452 21.5433 72.0912 21.786 71.0178 21.786C70.8685 21.786 70.6352 21.7767 70.3178 21.758C70.2245 21.7487 70.1778 21.6973 70.1778 21.604L70.2198 20.638C70.2198 20.6007 70.2338 20.568 70.2618 20.54C70.2898 20.512 70.3272 20.5027 70.3738 20.512C70.5045 20.5213 70.6958 20.526 70.9478 20.526C71.7412 20.526 72.3152 20.3767 72.6698 20.078C73.0245 19.7887 73.2018 19.294 73.2018 18.594V18.342C73.2018 18.3233 73.1925 18.3093 73.1738 18.3C73.1645 18.2907 73.1505 18.2953 73.1318 18.314C72.7398 18.7713 72.1658 19 71.4098 19C70.8032 19 70.2525 18.8413 69.7578 18.524C69.2725 18.2067 68.9365 17.74 68.7498 17.124C68.6285 16.7133 68.5678 16.144 68.5678 15.416C68.5678 14.6413 68.6378 14.044 68.7778 13.624C68.9552 13.064 69.2678 12.616 69.7158 12.28C70.1732 11.9347 70.7098 11.762 71.3258 11.762C72.0912 11.762 72.6932 11.9953 73.1318 12.462C73.1505 12.4807 73.1645 12.49 73.1738 12.49C73.1925 12.4807 73.2018 12.4667 73.2018 12.448V12.014ZM73.1178 16.718C73.1458 16.5687 73.1645 16.41 73.1738 16.242C73.1925 16.074 73.2018 15.794 73.2018 15.402C73.2018 15.01 73.1925 14.7347 73.1738 14.576C73.1645 14.408 73.1412 14.2493 73.1038 14.1C73.0292 13.7547 72.8612 13.4747 72.5998 13.26C72.3385 13.036 72.0118 12.924 71.6198 12.924C71.2278 12.924 70.9012 13.036 70.6398 13.26C70.3785 13.4747 70.1918 13.7547 70.0798 14.1C69.9772 14.38 69.9258 14.814 69.9258 15.402C69.9258 16.046 69.9725 16.4847 70.0658 16.718C70.1592 17.0633 70.3412 17.348 70.6118 17.572C70.8918 17.7867 71.2278 17.894 71.6198 17.894C72.0305 17.894 72.3618 17.7867 72.6138 17.572C72.8752 17.348 73.0432 17.0633 73.1178 16.718Z" fill="#9290FE"/>
</svg>
