<svg width="220" height="96" viewBox="0 0 220 96" fill="none" xmlns="http://www.w3.org/2000/svg">
<g filter="url(#filter0_d_201_2221)">
<rect x="24" y="16" width="172" height="48" rx="8" fill="#EA7C69"/>
<path d="M71.186 46.112C70.458 46.112 69.8233 45.9953 69.282 45.762C68.7407 45.5287 68.3207 45.202 68.022 44.782C67.7327 44.362 67.588 43.8673 67.588 43.298V42.948C67.588 42.9013 67.602 42.864 67.63 42.836C67.6673 42.7987 67.7093 42.78 67.756 42.78H69.002C69.0487 42.78 69.086 42.7987 69.114 42.836C69.1513 42.864 69.17 42.9013 69.17 42.948V43.214C69.17 43.6433 69.3613 44.0027 69.744 44.292C70.1267 44.572 70.6493 44.712 71.312 44.712C71.8813 44.712 72.3107 44.5907 72.6 44.348C72.8893 44.1053 73.034 43.7927 73.034 43.41C73.034 43.1487 72.9547 42.9293 72.796 42.752C72.6373 42.5653 72.4087 42.3973 72.11 42.248C71.8207 42.0987 71.382 41.912 70.794 41.688C70.1313 41.4453 69.5947 41.2167 69.184 41.002C68.7733 40.7873 68.428 40.498 68.148 40.134C67.8773 39.7607 67.742 39.2987 67.742 38.748C67.742 37.9267 68.0407 37.278 68.638 36.802C69.2353 36.326 70.0333 36.088 71.032 36.088C71.732 36.088 72.348 36.2093 72.88 36.452C73.4213 36.6947 73.8413 37.0353 74.14 37.474C74.4387 37.9033 74.588 38.4027 74.588 38.972V39.21C74.588 39.2567 74.5693 39.2987 74.532 39.336C74.504 39.364 74.4667 39.378 74.42 39.378H73.16C73.1133 39.378 73.0713 39.364 73.034 39.336C73.006 39.2987 72.992 39.2567 72.992 39.21V39.056C72.992 38.6173 72.81 38.2487 72.446 37.95C72.0913 37.642 71.5967 37.488 70.962 37.488C70.4487 37.488 70.0473 37.5953 69.758 37.81C69.478 38.0247 69.338 38.328 69.338 38.72C69.338 39 69.4127 39.2287 69.562 39.406C69.7113 39.5833 69.9353 39.7467 70.234 39.896C70.5327 40.036 70.9947 40.218 71.62 40.442C72.2827 40.694 72.81 40.9227 73.202 41.128C73.6033 41.3333 73.944 41.6227 74.224 41.996C74.5133 42.36 74.658 42.8173 74.658 43.368C74.658 44.208 74.3453 44.8753 73.72 45.37C73.104 45.8647 72.2593 46.112 71.186 46.112ZM78.8011 38.734C79.3891 38.734 79.9071 38.8367 80.3551 39.042C80.8031 39.2473 81.1485 39.532 81.3911 39.896C81.6338 40.2507 81.7551 40.6567 81.7551 41.114V45.832C81.7551 45.8787 81.7365 45.9207 81.6991 45.958C81.6711 45.986 81.6338 46 81.5871 46H80.2991C80.2525 46 80.2105 45.986 80.1731 45.958C80.1451 45.9207 80.1311 45.8787 80.1311 45.832V45.384C80.1311 45.356 80.1218 45.342 80.1031 45.342C80.0845 45.3327 80.0658 45.3373 80.0471 45.356C79.5898 45.86 78.9271 46.112 78.0591 46.112C77.3591 46.112 76.7805 45.9347 76.3231 45.58C75.8751 45.2253 75.6511 44.698 75.6511 43.998C75.6511 43.27 75.9031 42.7053 76.4071 42.304C76.9205 41.8933 77.6391 41.688 78.5631 41.688H80.0611C80.1078 41.688 80.1311 41.6647 80.1311 41.618V41.282C80.1311 40.918 80.0238 40.638 79.8091 40.442C79.5945 40.2367 79.2725 40.134 78.8431 40.134C78.4885 40.134 78.1991 40.1993 77.9751 40.33C77.7605 40.4513 77.6251 40.624 77.5691 40.848C77.5411 40.96 77.4758 41.0067 77.3731 40.988L76.0151 40.82C75.9685 40.8107 75.9265 40.7967 75.8891 40.778C75.8611 40.75 75.8518 40.7173 75.8611 40.68C75.9358 40.1107 76.2391 39.644 76.7711 39.28C77.3125 38.916 77.9891 38.734 78.8011 38.734ZM78.4651 44.824C78.9225 44.824 79.3145 44.7027 79.6411 44.46C79.9678 44.2173 80.1311 43.9093 80.1311 43.536V42.878C80.1311 42.8313 80.1078 42.808 80.0611 42.808H78.8851C78.3905 42.808 77.9985 42.9013 77.7091 43.088C77.4291 43.2747 77.2891 43.5407 77.2891 43.886C77.2891 44.1847 77.3965 44.418 77.6111 44.586C77.8351 44.7447 78.1198 44.824 78.4651 44.824ZM85.1672 46C85.0739 46 85.0132 45.9533 84.9852 45.86L82.7312 39.028C82.7219 39.0093 82.7172 38.986 82.7172 38.958C82.7172 38.874 82.7685 38.832 82.8712 38.832H84.2992C84.4019 38.832 84.4672 38.8787 84.4952 38.972L85.8532 43.648C85.8625 43.676 85.8765 43.69 85.8952 43.69C85.9139 43.69 85.9279 43.676 85.9372 43.648L87.2952 38.972C87.3232 38.8787 87.3885 38.832 87.4912 38.832L88.9192 38.86C88.9752 38.86 89.0172 38.8787 89.0452 38.916C89.0732 38.944 89.0779 38.9907 89.0592 39.056L86.8192 45.86C86.7912 45.9533 86.7305 46 86.6372 46H85.1672ZM95.9411 41.618C95.9784 41.8513 95.9971 42.1127 95.9971 42.402L95.9831 42.836C95.9831 42.948 95.9271 43.004 95.8151 43.004H91.4331C91.3864 43.004 91.3631 43.0273 91.3631 43.074C91.3911 43.382 91.4331 43.592 91.4891 43.704C91.7131 44.376 92.2591 44.7167 93.1271 44.726C93.7617 44.726 94.2657 44.4647 94.6391 43.942C94.6764 43.886 94.7231 43.858 94.7791 43.858C94.8164 43.858 94.8491 43.872 94.8771 43.9L95.7451 44.614C95.8291 44.6793 95.8431 44.754 95.7871 44.838C95.4977 45.2487 95.1104 45.566 94.6251 45.79C94.1491 46.014 93.6171 46.126 93.0291 46.126C92.3011 46.126 91.6804 45.9627 91.1671 45.636C90.6631 45.3093 90.2944 44.852 90.0611 44.264C89.8464 43.76 89.7391 43.06 89.7391 42.164C89.7391 41.6227 89.7951 41.184 89.9071 40.848C90.0937 40.1947 90.4437 39.6813 90.9571 39.308C91.4797 38.9253 92.1051 38.734 92.8331 38.734C94.6717 38.734 95.7077 39.6953 95.9411 41.618ZM92.8331 40.134C92.4877 40.134 92.1984 40.2227 91.9651 40.4C91.7411 40.568 91.5824 40.806 91.4891 41.114C91.4331 41.2727 91.3957 41.478 91.3771 41.73C91.3584 41.7767 91.3771 41.8 91.4331 41.8H94.2751C94.3217 41.8 94.3451 41.7767 94.3451 41.73C94.3264 41.4967 94.2984 41.3193 94.2611 41.198C94.1771 40.862 94.0091 40.6007 93.7571 40.414C93.5144 40.2273 93.2064 40.134 92.8331 40.134ZM103.714 46.112C103.014 46.112 102.398 45.9767 101.866 45.706C101.334 45.426 100.923 45.0387 100.634 44.544C100.345 44.0493 100.2 43.4753 100.2 42.822V39.364C100.2 38.7107 100.345 38.1367 100.634 37.642C100.923 37.1473 101.334 36.7647 101.866 36.494C102.398 36.2233 103.014 36.088 103.714 36.088C104.405 36.088 105.016 36.2187 105.548 36.48C106.08 36.7413 106.491 37.11 106.78 37.586C107.069 38.062 107.214 38.6127 107.214 39.238C107.214 39.2847 107.195 39.3267 107.158 39.364C107.13 39.392 107.093 39.406 107.046 39.406L105.758 39.476C105.646 39.476 105.59 39.4247 105.59 39.322C105.59 38.7713 105.417 38.328 105.072 37.992C104.736 37.656 104.283 37.488 103.714 37.488C103.145 37.488 102.687 37.656 102.342 37.992C101.997 38.328 101.824 38.7713 101.824 39.322V42.892C101.824 43.4333 101.997 43.872 102.342 44.208C102.687 44.544 103.145 44.712 103.714 44.712C104.283 44.712 104.736 44.5487 105.072 44.222C105.417 43.886 105.59 43.4427 105.59 42.892C105.59 42.7893 105.646 42.738 105.758 42.738L107.046 42.794C107.093 42.794 107.13 42.808 107.158 42.836C107.195 42.864 107.214 42.8967 107.214 42.934C107.214 43.5687 107.069 44.1287 106.78 44.614C106.491 45.09 106.08 45.4587 105.548 45.72C105.016 45.9813 104.405 46.112 103.714 46.112ZM112.232 38.734C112.988 38.734 113.59 38.958 114.038 39.406C114.495 39.854 114.724 40.4653 114.724 41.24V45.832C114.724 45.8787 114.705 45.9207 114.668 45.958C114.64 45.986 114.602 46 114.556 46H113.268C113.221 46 113.179 45.986 113.142 45.958C113.114 45.9207 113.1 45.8787 113.1 45.832V41.576C113.1 41.1467 112.978 40.8013 112.736 40.54C112.493 40.2693 112.171 40.134 111.77 40.134C111.368 40.134 111.042 40.2647 110.79 40.526C110.547 40.7873 110.426 41.1327 110.426 41.562V45.832C110.426 45.8787 110.407 45.9207 110.37 45.958C110.342 45.986 110.304 46 110.258 46H108.97C108.923 46 108.881 45.986 108.844 45.958C108.816 45.9207 108.802 45.8787 108.802 45.832V36.368C108.802 36.3213 108.816 36.284 108.844 36.256C108.881 36.2187 108.923 36.2 108.97 36.2H110.258C110.304 36.2 110.342 36.2187 110.37 36.256C110.407 36.284 110.426 36.3213 110.426 36.368V39.462C110.426 39.49 110.435 39.5087 110.454 39.518C110.472 39.5273 110.486 39.518 110.496 39.49C110.878 38.986 111.457 38.734 112.232 38.734ZM119.147 38.734C119.735 38.734 120.253 38.8367 120.701 39.042C121.149 39.2473 121.494 39.532 121.737 39.896C121.979 40.2507 122.101 40.6567 122.101 41.114V45.832C122.101 45.8787 122.082 45.9207 122.045 45.958C122.017 45.986 121.979 46 121.933 46H120.645C120.598 46 120.556 45.986 120.519 45.958C120.491 45.9207 120.477 45.8787 120.477 45.832V45.384C120.477 45.356 120.467 45.342 120.449 45.342C120.43 45.3327 120.411 45.3373 120.393 45.356C119.935 45.86 119.273 46.112 118.405 46.112C117.705 46.112 117.126 45.9347 116.669 45.58C116.221 45.2253 115.997 44.698 115.997 43.998C115.997 43.27 116.249 42.7053 116.753 42.304C117.266 41.8933 117.985 41.688 118.909 41.688H120.407C120.453 41.688 120.477 41.6647 120.477 41.618V41.282C120.477 40.918 120.369 40.638 120.155 40.442C119.94 40.2367 119.618 40.134 119.189 40.134C118.834 40.134 118.545 40.1993 118.321 40.33C118.106 40.4513 117.971 40.624 117.915 40.848C117.887 40.96 117.821 41.0067 117.719 40.988L116.361 40.82C116.314 40.8107 116.272 40.7967 116.235 40.778C116.207 40.75 116.197 40.7173 116.207 40.68C116.281 40.1107 116.585 39.644 117.117 39.28C117.658 38.916 118.335 38.734 119.147 38.734ZM118.811 44.824C119.268 44.824 119.66 44.7027 119.987 44.46C120.313 44.2173 120.477 43.9093 120.477 43.536V42.878C120.477 42.8313 120.453 42.808 120.407 42.808H119.231C118.736 42.808 118.344 42.9013 118.055 43.088C117.775 43.2747 117.635 43.5407 117.635 43.886C117.635 44.1847 117.742 44.418 117.957 44.586C118.181 44.7447 118.465 44.824 118.811 44.824ZM127.161 38.734C127.917 38.734 128.519 38.958 128.967 39.406C129.425 39.854 129.653 40.4653 129.653 41.24V45.832C129.653 45.8787 129.635 45.9207 129.597 45.958C129.569 45.986 129.532 46 129.485 46H128.197C128.151 46 128.109 45.986 128.071 45.958C128.043 45.9207 128.029 45.8787 128.029 45.832V41.576C128.029 41.1467 127.908 40.8013 127.665 40.54C127.423 40.2693 127.101 40.134 126.699 40.134C126.298 40.134 125.971 40.2647 125.719 40.526C125.477 40.7873 125.355 41.1327 125.355 41.562V45.832C125.355 45.8787 125.337 45.9207 125.299 45.958C125.271 45.986 125.234 46 125.187 46H123.899C123.853 46 123.811 45.986 123.773 45.958C123.745 45.9207 123.731 45.8787 123.731 45.832V39.014C123.731 38.9673 123.745 38.93 123.773 38.902C123.811 38.8647 123.853 38.846 123.899 38.846H125.187C125.234 38.846 125.271 38.8647 125.299 38.902C125.337 38.93 125.355 38.9673 125.355 39.014V39.462C125.355 39.49 125.365 39.5087 125.383 39.518C125.402 39.5273 125.416 39.518 125.425 39.49C125.808 38.986 126.387 38.734 127.161 38.734ZM135.729 39.014C135.729 38.9673 135.743 38.93 135.771 38.902C135.808 38.8647 135.85 38.846 135.897 38.846H137.185C137.231 38.846 137.269 38.8647 137.297 38.902C137.334 38.93 137.353 38.9673 137.353 39.014V45.524C137.353 46.6907 137.017 47.5213 136.345 48.016C135.682 48.52 134.809 48.772 133.727 48.772C133.437 48.772 133.153 48.758 132.873 48.73C132.77 48.7207 132.719 48.66 132.719 48.548L132.761 47.4C132.761 47.2973 132.826 47.246 132.957 47.246C133.227 47.274 133.47 47.288 133.685 47.288C134.385 47.288 134.898 47.148 135.225 46.868C135.561 46.5973 135.729 46.1353 135.729 45.482V45.37C135.729 45.342 135.719 45.328 135.701 45.328C135.682 45.3187 135.663 45.3233 135.645 45.342C135.262 45.7527 134.721 45.958 134.021 45.958C133.414 45.958 132.859 45.804 132.355 45.496C131.851 45.188 131.501 44.7167 131.305 44.082C131.183 43.6433 131.123 43.0787 131.123 42.388C131.123 41.6133 131.197 41.0207 131.347 40.61C131.533 40.0407 131.855 39.588 132.313 39.252C132.77 38.9067 133.307 38.734 133.923 38.734C134.66 38.734 135.234 38.9487 135.645 39.378C135.663 39.406 135.682 39.4153 135.701 39.406C135.719 39.3967 135.729 39.378 135.729 39.35V39.014ZM135.631 43.62C135.668 43.48 135.691 43.3307 135.701 43.172C135.719 43.004 135.729 42.738 135.729 42.374C135.729 42.0193 135.719 41.7673 135.701 41.618C135.691 41.4593 135.663 41.3053 135.617 41.156C135.542 40.848 135.388 40.6007 135.155 40.414C134.931 40.2273 134.641 40.134 134.287 40.134C133.951 40.134 133.666 40.2273 133.433 40.414C133.199 40.6007 133.031 40.848 132.929 41.156C132.817 41.4173 132.761 41.828 132.761 42.388C132.761 42.9667 132.807 43.3727 132.901 43.606C132.994 43.9047 133.162 44.152 133.405 44.348C133.657 44.5347 133.955 44.628 134.301 44.628C134.665 44.628 134.959 44.5347 135.183 44.348C135.407 44.1613 135.556 43.9187 135.631 43.62ZM145.064 41.618C145.101 41.8513 145.12 42.1127 145.12 42.402L145.106 42.836C145.106 42.948 145.05 43.004 144.938 43.004H140.556C140.509 43.004 140.486 43.0273 140.486 43.074C140.514 43.382 140.556 43.592 140.612 43.704C140.836 44.376 141.382 44.7167 142.25 44.726C142.885 44.726 143.389 44.4647 143.762 43.942C143.799 43.886 143.846 43.858 143.902 43.858C143.939 43.858 143.972 43.872 144 43.9L144.868 44.614C144.952 44.6793 144.966 44.754 144.91 44.838C144.621 45.2487 144.233 45.566 143.748 45.79C143.272 46.014 142.74 46.126 142.152 46.126C141.424 46.126 140.803 45.9627 140.29 45.636C139.786 45.3093 139.417 44.852 139.184 44.264C138.969 43.76 138.862 43.06 138.862 42.164C138.862 41.6227 138.918 41.184 139.03 40.848C139.217 40.1947 139.567 39.6813 140.08 39.308C140.603 38.9253 141.228 38.734 141.956 38.734C143.795 38.734 144.831 39.6953 145.064 41.618ZM141.956 40.134C141.611 40.134 141.321 40.2227 141.088 40.4C140.864 40.568 140.705 40.806 140.612 41.114C140.556 41.2727 140.519 41.478 140.5 41.73C140.481 41.7767 140.5 41.8 140.556 41.8H143.398C143.445 41.8 143.468 41.7767 143.468 41.73C143.449 41.4967 143.421 41.3193 143.384 41.198C143.3 40.862 143.132 40.6007 142.88 40.414C142.637 40.2273 142.329 40.134 141.956 40.134ZM149.155 46.084C148.567 46.084 148.049 46 147.601 45.832C147.162 45.6547 146.822 45.4167 146.579 45.118C146.336 44.81 146.215 44.4693 146.215 44.096V43.97C146.215 43.9233 146.229 43.886 146.257 43.858C146.294 43.8207 146.336 43.802 146.383 43.802H147.615C147.662 43.802 147.699 43.8207 147.727 43.858C147.764 43.886 147.783 43.9233 147.783 43.97V43.998C147.783 44.2313 147.909 44.4367 148.161 44.614C148.422 44.782 148.749 44.866 149.141 44.866C149.514 44.866 149.818 44.7913 150.051 44.642C150.284 44.4833 150.401 44.2873 150.401 44.054C150.401 43.8393 150.303 43.6807 150.107 43.578C149.92 43.466 149.612 43.3493 149.183 43.228L148.651 43.06C148.175 42.92 147.774 42.7707 147.447 42.612C147.12 42.4533 146.845 42.2387 146.621 41.968C146.397 41.688 146.285 41.3333 146.285 40.904C146.285 40.2507 146.542 39.7327 147.055 39.35C147.568 38.958 148.245 38.762 149.085 38.762C149.654 38.762 150.154 38.8553 150.583 39.042C151.012 39.2193 151.344 39.4713 151.577 39.798C151.81 40.1153 151.927 40.4793 151.927 40.89C151.927 40.9367 151.908 40.9787 151.871 41.016C151.843 41.044 151.806 41.058 151.759 41.058H150.569C150.522 41.058 150.48 41.044 150.443 41.016C150.415 40.9787 150.401 40.9367 150.401 40.89C150.401 40.6473 150.28 40.4467 150.037 40.288C149.804 40.12 149.482 40.036 149.071 40.036C148.707 40.036 148.408 40.106 148.175 40.246C147.951 40.3767 147.839 40.5633 147.839 40.806C147.839 41.03 147.946 41.2027 148.161 41.324C148.385 41.436 148.754 41.562 149.267 41.702L149.575 41.786C150.07 41.9353 150.485 42.0893 150.821 42.248C151.157 42.3973 151.442 42.612 151.675 42.892C151.908 43.1627 152.025 43.5173 152.025 43.956C152.025 44.6187 151.764 45.1413 151.241 45.524C150.718 45.8973 150.023 46.084 149.155 46.084Z" fill="#FAFAFA"/>
</g>
<defs>
<filter id="filter0_d_201_2221" x="0" y="0" width="220" height="96" filterUnits="userSpaceOnUse" color-interpolation-filters="sRGB">
<feFlood flood-opacity="0" result="BackgroundImageFix"/>
<feColorMatrix in="SourceAlpha" type="matrix" values="0 0 0 0 0 0 0 0 0 0 0 0 0 0 0 0 0 0 127 0" result="hardAlpha"/>
<feOffset dy="8"/>
<feGaussianBlur stdDeviation="12"/>
<feColorMatrix type="matrix" values="0 0 0 0 0.917647 0 0 0 0 0.486275 0 0 0 0 0.411765 0 0 0 0.4 0"/>
<feBlend mode="normal" in2="BackgroundImageFix" result="effect1_dropShadow_201_2221"/>
<feBlend mode="normal" in="SourceGraphic" in2="effect1_dropShadow_201_2221" result="shape"/>
</filter>
</defs>
</svg>
