<svg width="324" height="49" viewBox="0 0 324 49" fill="none" xmlns="http://www.w3.org/2000/svg">
<rect x="0.5" y="1.37878" width="323" height="47" rx="7.5" stroke="#EA7C69"/>
<path d="M141.056 30.8788C140.963 30.8788 140.902 30.8321 140.874 30.7388L137.934 21.2748L137.92 21.2188C137.92 21.1255 137.971 21.0788 138.074 21.0788H139.46C139.563 21.0788 139.628 21.1255 139.656 21.2188L141.756 28.5268C141.765 28.5548 141.779 28.5688 141.798 28.5688C141.817 28.5688 141.831 28.5548 141.84 28.5268L143.926 21.2188C143.954 21.1255 144.019 21.0788 144.122 21.0788H145.48C145.536 21.0788 145.578 21.0975 145.606 21.1348C145.634 21.1721 145.639 21.2188 145.62 21.2748L142.638 30.7388C142.61 30.8321 142.549 30.8788 142.456 30.8788H141.056ZM147.837 22.7448C147.548 22.7448 147.31 22.6515 147.123 22.4648C146.936 22.2781 146.843 22.0401 146.843 21.7508C146.843 21.4615 146.936 21.2235 147.123 21.0368C147.31 20.8501 147.548 20.7568 147.837 20.7568C148.126 20.7568 148.364 20.8501 148.551 21.0368C148.738 21.2235 148.831 21.4615 148.831 21.7508C148.831 22.0401 148.738 22.2781 148.551 22.4648C148.364 22.6515 148.126 22.7448 147.837 22.7448ZM147.165 30.8788C147.118 30.8788 147.076 30.8648 147.039 30.8368C147.011 30.7995 146.997 30.7575 146.997 30.7108V23.8788C146.997 23.8321 147.011 23.7948 147.039 23.7668C147.076 23.7295 147.118 23.7108 147.165 23.7108H148.453C148.5 23.7108 148.537 23.7295 148.565 23.7668C148.602 23.7948 148.621 23.8321 148.621 23.8788V30.7108C148.621 30.7575 148.602 30.7995 148.565 30.8368C148.537 30.8648 148.5 30.8788 148.453 30.8788H147.165ZM156.515 26.4968C156.553 26.7301 156.571 26.9915 156.571 27.2808L156.557 27.7148C156.557 27.8268 156.501 27.8828 156.389 27.8828H152.007C151.961 27.8828 151.937 27.9061 151.937 27.9528C151.965 28.2608 152.007 28.4708 152.063 28.5828C152.287 29.2548 152.833 29.5955 153.701 29.6048C154.336 29.6048 154.84 29.3435 155.213 28.8208C155.251 28.7648 155.297 28.7368 155.353 28.7368C155.391 28.7368 155.423 28.7508 155.451 28.7788L156.319 29.4928C156.403 29.5581 156.417 29.6328 156.361 29.7168C156.072 30.1275 155.685 30.4448 155.199 30.6688C154.723 30.8928 154.191 31.0048 153.603 31.0048C152.875 31.0048 152.255 30.8415 151.741 30.5148C151.237 30.1881 150.869 29.7308 150.635 29.1428C150.421 28.6388 150.313 27.9388 150.313 27.0428C150.313 26.5015 150.369 26.0628 150.481 25.7268C150.668 25.0735 151.018 24.5601 151.531 24.1868C152.054 23.8041 152.679 23.6128 153.407 23.6128C155.246 23.6128 156.282 24.5741 156.515 26.4968ZM153.407 25.0128C153.062 25.0128 152.773 25.1015 152.539 25.2788C152.315 25.4468 152.157 25.6848 152.063 25.9928C152.007 26.1515 151.97 26.3568 151.951 26.6088C151.933 26.6555 151.951 26.6788 152.007 26.6788H154.849C154.896 26.6788 154.919 26.6555 154.919 26.6088C154.901 26.3755 154.873 26.1981 154.835 26.0768C154.751 25.7408 154.583 25.4795 154.331 25.2928C154.089 25.1061 153.781 25.0128 153.407 25.0128ZM159.435 30.8788C159.332 30.8788 159.267 30.8321 159.239 30.7388L157.237 23.9068L157.223 23.8508C157.223 23.7575 157.274 23.7108 157.377 23.7108H158.707C158.81 23.7108 158.875 23.7575 158.903 23.8508L160.065 28.5268C160.074 28.5548 160.088 28.5688 160.107 28.5688C160.126 28.5688 160.14 28.5548 160.149 28.5268L161.367 23.8508C161.395 23.7575 161.46 23.7108 161.563 23.7108H162.725C162.828 23.7108 162.893 23.7575 162.921 23.8508L164.167 28.5268C164.176 28.5548 164.19 28.5688 164.209 28.5688C164.228 28.5688 164.242 28.5548 164.251 28.5268L165.497 23.8508C165.525 23.7575 165.59 23.7108 165.693 23.7108L167.009 23.7388C167.065 23.7388 167.102 23.7575 167.121 23.7948C167.149 23.8228 167.158 23.8648 167.149 23.9208L165.133 30.7388C165.105 30.8321 165.044 30.8788 164.951 30.8788H163.607C163.504 30.8788 163.439 30.8321 163.411 30.7388L162.179 26.4688C162.17 26.4408 162.156 26.4268 162.137 26.4268C162.118 26.4268 162.104 26.4408 162.095 26.4688L160.961 30.7388C160.933 30.8321 160.868 30.8788 160.765 30.8788H159.435ZM177.424 30.8788C177.331 30.8788 177.27 30.8321 177.242 30.7388L176.78 29.2408C176.762 29.2035 176.738 29.1848 176.71 29.1848H173.014C172.986 29.1848 172.963 29.2035 172.944 29.2408L172.482 30.7388C172.454 30.8321 172.394 30.8788 172.3 30.8788H170.9C170.844 30.8788 170.802 30.8648 170.774 30.8368C170.746 30.7995 170.742 30.7481 170.76 30.6828L173.798 21.2188C173.826 21.1255 173.887 21.0788 173.98 21.0788H175.73C175.824 21.0788 175.884 21.1255 175.912 21.2188L178.964 30.6828C178.974 30.7015 178.978 30.7248 178.978 30.7528C178.978 30.8368 178.927 30.8788 178.824 30.8788H177.424ZM173.378 27.8268C173.369 27.8828 173.388 27.9108 173.434 27.9108H176.276C176.332 27.9108 176.351 27.8828 176.332 27.8268L174.89 23.1368C174.881 23.0995 174.867 23.0808 174.848 23.0808C174.83 23.0808 174.816 23.0995 174.806 23.1368L173.378 27.8268ZM180.44 30.8788C180.394 30.8788 180.352 30.8648 180.314 30.8368C180.286 30.7995 180.272 30.7575 180.272 30.7108V21.2468C180.272 21.2001 180.286 21.1628 180.314 21.1348C180.352 21.0975 180.394 21.0788 180.44 21.0788H181.728C181.775 21.0788 181.812 21.0975 181.84 21.1348C181.878 21.1628 181.896 21.2001 181.896 21.2468V30.7108C181.896 30.7575 181.878 30.7995 181.84 30.8368C181.812 30.8648 181.775 30.8788 181.728 30.8788H180.44ZM183.79 30.8788C183.743 30.8788 183.701 30.8648 183.664 30.8368C183.636 30.7995 183.622 30.7575 183.622 30.7108V21.2468C183.622 21.2001 183.636 21.1628 183.664 21.1348C183.701 21.0975 183.743 21.0788 183.79 21.0788H185.078C185.125 21.0788 185.162 21.0975 185.19 21.1348C185.227 21.1628 185.246 21.2001 185.246 21.2468V30.7108C185.246 30.7575 185.227 30.7995 185.19 30.8368C185.162 30.8648 185.125 30.8788 185.078 30.8788H183.79Z" fill="#EA7C69"/>
</svg>
